<svg width="34" height="35" viewBox="0 0 34 35" fill="none" xmlns="http://www.w3.org/2000/svg">
<g clip-path="url(#clip0_10150_2471)">
<path d="M7.03906 0.5H24.4375V0.566406H24.7031V0.632812H24.9023V0.699219H25.0352V0.765625H25.168V0.832031H25.2344V0.898438H25.3672V0.964844H25.4336V1.03125H25.5V1.09766H25.5664V1.16406H25.6328V1.23047H25.6992V1.29688H25.7656V1.36328H25.832V1.49609H25.8984V1.5625H25.9648V1.69531H26.0312V1.82812H26.0977V2.02734H26.1641V2.29297H26.2305V12.8516H26.1641V13.0508H26.0977V13.1172H26.0312V13.1836H25.9648V13.25H25.8984V13.3164H25.6992V13.3828H25.3008V13.3164H25.168V13.25H25.0352V13.1836H24.9687V13.1172H24.9023V12.9844H24.8359V12.8516H24.7695V2.42578H24.7031V2.29297H24.6367V2.22656H24.5703V2.16016H24.5039V2.09375H24.4375V2.02734H24.3047V1.96094H20.0547V2.22656H19.9883V2.55859H19.9219V2.82422H19.8555V3.08984H19.7891V3.28906H19.7227V3.42188H19.6562V3.55469H19.5898V3.62109H19.5234V3.6875H19.457V3.75391H19.3906V3.82031H19.3242V3.88672H19.2578V3.95312H19.125V4.01953H18.9922V4.08594H18.793V4.15234H12.8828V4.08594H12.6836V4.01953H12.5508V3.95312H12.418V3.88672H12.3516V3.82031H12.2852V3.75391H12.2187V3.6875H12.1523V3.62109H12.0859V3.48828H12.0195V3.42188H11.9531V3.28906H11.8867V3.08984H11.8203V2.75781H11.7539V2.49219H11.6875V2.22656H11.6211V1.96094H7.17187V2.02734H7.03906V2.09375H6.97266V2.16016H6.90625V2.22656H6.83984V2.29297H6.77344V2.42578H6.70703V32.5742H6.77344V32.707H6.83984V32.7734H6.90625V32.8398H6.97266V32.9062H7.03906V32.9727H7.17187V33.0391H24.3047V32.9727H24.4375V32.9062H24.5039V32.8398H24.5703V32.7734H24.6367V32.707H24.7031V32.5742H24.7695V31.5781H24.8359V31.3789H24.9023V31.3125H24.9687V31.2461H25.0352V31.1797H25.1016V31.1133H25.2344V31.0469H25.832V31.1133H25.8984V31.1797H26.0312V31.3125H26.0977V31.3789H26.1641V31.5117H26.2305V32.707H26.1641V32.9727H26.0977V33.1719H26.0312V33.3047H25.9648V33.4375H25.8984V33.5039H25.832V33.6367H25.7656V33.7031H25.6992V33.7695H25.6328V33.8359H25.5664V33.9023H25.5V33.9688H25.4336V34.0352H25.3672V34.1016H25.2344V34.168H25.168V34.2344H25.0352V34.3008H24.9023V34.3672H24.7031V34.4336H24.4375V34.5H7.03906V34.4336H6.77344V34.3672H6.57422V34.3008H6.44141V34.2344H6.30859V34.168H6.17578V34.1016H6.10937V34.0352H6.04297V33.9688H5.97656V33.9023H5.91016V33.8359H5.84375V33.7695H5.77734V33.7031H5.71094V33.6367H5.64453V33.5703H5.57812V33.4375H5.51172V33.3047H5.44531V33.1719H5.37891V33.0391H5.3125V32.7734H5.24609V2.22656H5.3125V1.96094H5.37891V1.82812H5.44531V1.69531H5.51172V1.5625H5.57812V1.42969H5.64453V1.36328H5.71094V1.29688H5.77734V1.23047H5.84375V1.16406H5.91016V1.09766H5.97656V1.03125H6.04297V0.964844H6.10937V0.898438H6.17578V0.832031H6.30859V0.765625H6.44141V0.699219H6.57422V0.632812H6.77344V0.566406H7.03906V0.5Z" fill="#0995D2"/>
<path d="M22.4453 16.7031H22.9102V16.7695H23.043V16.8359H23.1094V16.9023H23.1758V16.9687H23.2422V17.0352H23.3086V17.1016H23.375V17.168H23.5078V17.2344H23.5742V17.3008H23.6406V17.3672H23.707V17.4336H23.7734V17.5H23.8398V17.5664H23.9062V17.6328H24.0391V17.6992H24.1055V17.7656H24.2383V17.832H24.3047V17.8984H24.4375V17.9648H24.5039V18.0312H24.6367V18.0977H24.7695V18.1641H24.8359V18.2305H24.9687V18.2969H25.168V18.3633H25.3008V18.4297H25.4336V18.4961H25.6328V18.5625H25.832V18.6289H26.0312V18.6953H26.2969V18.7617H26.5625V18.8281H26.9609V18.8945H27.8906V18.9609H28.2891V19.0273H28.4219V19.0937H28.4883V19.1602H28.5547V19.2266H28.6211V19.293H28.6875V19.4922H28.7539V21.6836H28.6875V22.2812H28.6211V22.7461H28.5547V23.1445H28.4883V23.4766H28.4219V23.7422H28.3555V24.0078H28.2891V24.2734H28.2227V24.4727H28.1562V24.6719H28.0898V24.8711H28.0234V25.0703H27.957V25.2695H27.8906V25.4687H27.8242V25.6016H27.7578V25.7344H27.6914V25.9336H27.625V26.0664H27.5586V26.1992H27.4922V26.332H27.4258V26.4648H27.3594V26.5976H27.293V26.7305H27.2266V26.8633H27.1602V26.9297H27.0937V27.0625H27.0273V27.1953H26.9609V27.2617H26.8945V27.3945H26.8281V27.5273H26.7617V27.5937H26.6953V27.7266H26.6289V27.793H26.5625V27.8594H26.4961V27.9922H26.4297V28.0586H26.3633V28.1914H26.2969V28.2578H26.2305V28.3242H26.1641V28.3906H26.0977V28.5234H26.0312V28.5898H25.9648V28.6562H25.8984V28.7226H25.832V28.7891H25.7656V28.8555H25.6992V28.9883H25.6328V29.0547H25.5664V29.1211H25.5V29.1875H25.4336V29.2539H25.3672V29.3203H25.3008V29.3867H25.2344V29.4531H25.168V29.5195H25.1016V29.5859H25.0352V29.6523H24.9687V29.7187H24.9023V29.7851H24.8359V29.8516H24.7031V29.918H24.6367V29.9844H24.5703V30.0508H24.5039V30.1172H24.4375V30.1836H24.3047V30.25H24.2383V30.3164H24.1719V30.3828H24.1055V30.4492H23.9727V30.5156H23.9062V30.582H23.8398V30.6484H23.707V30.7148H23.6406V30.7812H23.5078V30.8476H23.4414V30.9141H23.3086V30.9805H23.2422V31.0469H23.1094V31.1133H22.9766V31.1797H22.7773V31.2461H22.5117V31.1797H22.3125V31.1133H22.2461V31.0469H22.1133V30.9805H21.9805V30.9141H21.9141V30.8476H21.7812V30.7812H21.7148V30.7148H21.582V30.6484H21.5156V30.582H21.4492V30.5156H21.3164V30.4492H21.25V30.3828H21.1836V30.3164H21.0508V30.25H20.9844V30.1836H20.918V30.1172H20.8516V30.0508H20.7187V29.9844H20.6523V29.918H20.5859V29.8516H20.5195V29.7851H20.4531V29.7187H20.3867V29.6523H20.3203V29.5859H20.2539V29.5195H20.1875V29.4531H20.1211V29.3867H20.0547V29.3203H19.9883V29.2539H19.9219V29.1875H19.8555V29.1211H19.7891V29.0547H19.7227V28.9883H19.6562V28.9219H19.5898V28.8555H19.5234V28.7891H19.457V28.7226H19.3906V28.5898H19.3242V28.5234H19.2578V28.457H19.1914V28.3906H19.125V28.2578H19.0586V28.1914H18.9922V28.125H18.9258V27.9922H18.8594V27.9258H18.793V27.8594H18.7266V27.7266H18.6602V27.6601H18.5937V27.5273H18.5273V27.4609H18.4609V27.3281H18.3945V27.2617H18.3281V27.1289H18.2617V26.9961H18.1953V26.8633H18.1289V26.7969H18.0625V26.6641H17.9961V26.5312H17.9297V26.3984H17.8633V26.2656H17.7969V26.1328H17.7305V26H17.6641V25.8008H17.5977V25.668H17.5312V25.5352H17.4648V25.3359H17.3984V25.1367H17.332V25.0039H17.2656V24.8047H17.1992V24.6055H17.1328V24.3398H17.0664V24.1406H17V23.875H16.9336V23.6094H16.8672V23.2773H16.8008V22.9453H16.7344V22.5469H16.668V21.9492H16.6016V21.0195H16.5352V20.0234H16.6016V19.4258H16.668V19.293H16.7344V19.1602H16.8008V19.0937H16.9336V19.0273H17V18.9609H17.4648V18.8945H18.3281V18.8281H18.7266V18.7617H19.0586V18.6953H19.3242V18.6289H19.5234V18.5625H19.7227V18.4961H19.9219V18.4297H20.0547V18.3633H20.1875V18.2969H20.3203V18.2305H20.4531V18.1641H20.5859V18.0977H20.7187V18.0312H20.7852V17.9648H20.918V17.8984H21.0508V17.832H21.1172V17.7656H21.1836V17.6992H21.3164V17.6328H21.3828V17.5664H21.4492V17.5H21.582V17.4336H21.6484V17.3672H21.7148V17.3008H21.7812V17.2344H21.8477V17.168H21.9141V17.1016H21.9805V17.0352H22.0469V16.9687H22.1133V16.9023H22.1797V16.8359H22.3125V16.7695H22.4453V16.7031ZM24.7695 21.0859V21.1523H24.6367V21.2187H24.5039V21.3516H24.4375V21.418H24.3711V21.4844H24.3047V21.5508H24.2383V21.6836H24.1719V21.75H24.1055V21.8828H24.0391V21.9492H23.9727V22.0156H23.9062V22.1484H23.8398V22.2148H23.7734V22.2812H23.707V22.4141H23.6406V22.4805H23.5742V22.5469H23.5078V22.6797H23.4414V22.7461H23.375V22.8125H23.3086V22.9453H23.2422V23.0117H23.1758V23.0781H23.1094V23.2109H23.043V23.2773H22.9766V23.3437H22.9102V23.4766H22.8437V23.543H22.7773V23.6094H22.7109V23.7422H22.6445V23.8086H22.5781V23.9414H22.5117V24.0078H22.4453V24.0742H22.3789V24.207H22.3125V24.2734H22.1797V24.207H22.1133V24.1406H22.0469V24.0742H21.9805V24.0078H21.9141V23.9414H21.8477V23.875H21.7812V23.8086H21.7148V23.7422H21.6484V23.6758H21.582V23.6094H21.5156V23.543H21.4492V23.4766H21.3828V23.4102H21.3164V23.3437H21.25V23.2773H21.1172V23.2109H20.9844V23.1445H20.5195V23.2109H20.3867V23.2773H20.3203V23.3437H20.2539V23.4102H20.1875V23.4766H20.1211V23.6094H20.0547V24.1406H20.1211V24.2734H20.1875V24.3398H20.2539V24.4062H20.3203V24.4727H20.3867V24.5391H20.4531V24.6055H20.5195V24.6719H20.5859V24.7383H20.6523V24.8047H20.7187V24.8711H20.7852V24.9375H20.8516V25.0039H20.918V25.0703H20.9844V25.1367H21.0508V25.2031H21.1172V25.2695H21.1836V25.3359H21.25V25.4023H21.3164V25.4687H21.3828V25.5352H21.4492V25.6016H21.5156V25.668H21.582V25.7344H21.6484V25.8008H21.7148V25.8672H21.7812V25.9336H21.8477V26H21.9805V26.0664H22.1133V26.1328H22.5781V26.0664H22.7109V26H22.7773V25.9336H22.8437V25.8672H22.9102V25.8008H22.9766V25.7344H23.043V25.6016H23.1094V25.5352H23.1758V25.4687H23.2422V25.3359H23.3086V25.2695H23.375V25.2031H23.4414V25.0703H23.5078V25.0039H23.5742V24.9375H23.6406V24.8047H23.707V24.7383H23.7734V24.6719H23.8398V24.5391H23.9062V24.4727H23.9727V24.4062H24.0391V24.2734H24.1055V24.207H24.1719V24.1406H24.2383V24.0078H24.3047V23.9414H24.3711V23.875H24.4375V23.7422H24.5039V23.6758H24.5703V23.543H24.6367V23.4766H24.7031V23.4102H24.7695V23.2773H24.8359V23.2109H24.9023V23.1445H24.9687V23.0117H25.0352V22.9453H25.1016V22.8789H25.168V22.7461H25.2344V22.6797H25.3008V22.6133H25.3672V22.4805H25.4336V22.4141H25.5V22.3477H25.5664V22.2148H25.6328V22.1484H25.6992V21.9492H25.7656V21.6172H25.6992V21.418H25.6328V21.3516H25.5664V21.2852H25.5V21.2187H25.4336V21.1523H25.3008V21.0859H24.7695Z" fill="#D22936"/>
<path d="M11.0234 6.94141H11.4883V7.00781H11.8867V7.07422H12.0859V7.14062H12.2187V7.20703H12.3516V7.27344H12.4844V7.33984H12.5508V7.40625H12.6172V7.47266H12.6836V7.53906H12.75V7.60547H12.8164V7.67187H12.8828V7.80469H12.9492V7.9375H13.0156V8.07031H13.082V8.26953H13.1484V8.53516H13.2148V9.73047H13.1484V9.99609H13.082V10.1953H13.0156V10.3281H12.9492V10.4609H12.8828V10.5937H12.8164V10.6602H12.75V10.7266H12.6836V10.793H12.6172V10.8594H12.5508V10.9258H12.4844V10.9922H12.418V11.0586H12.2852V11.125H12.1523V11.1914H11.9531V11.2578H11.6875V11.3242H10.7578V11.2578H10.4922V11.1914H10.293V11.125H10.1602V11.0586H10.0273V10.9922H9.96094V10.9258H9.89453V10.8594H9.82812V10.793H9.76172V10.7266H9.69531V10.6602H9.62891V10.5937H9.5625V10.4609H9.49609V10.3945H9.42969V10.1953H9.36328V9.99609H9.29687V9.73047H9.23047V8.53516H9.29687V8.26953H9.36328V8.07031H9.42969V7.9375H9.49609V7.80469H9.5625V7.67187H9.62891V7.60547H9.69531V7.53906H9.76172V7.47266H9.82812V7.40625H9.89453V7.33984H9.96094V7.27344H10.0937V7.20703H10.2266V7.14062H10.3594V7.07422H10.5586V7.00781H11.0234V6.94141ZM10.8242 7.73828V7.80469H10.6914V7.87109H10.5586V7.9375H10.4922V8.00391H10.4258V8.13672H10.3594V8.20312H10.293V8.40234H10.2266V8.66797H10.1602V9.59766H10.2266V9.92969H10.293V10.0625H10.3594V10.1953H10.4258V10.2617H10.4922V10.3281H10.5586V10.3945H10.625V10.4609H10.8242V10.5273H11.0898V10.5937H11.4219V10.5273H11.6875V10.4609H11.8203V10.3945H11.8867V10.3281H11.9531V10.2617H12.0195V10.1953H12.0859V10.0625H12.1523V9.92969H12.2187V9.66406H12.2852V8.66797H12.2187V8.40234H12.1523V8.20312H12.0859V8.13672H12.0195V8.00391H11.9531V7.9375H11.8867V7.87109H11.7539V7.80469H11.6211V7.73828H10.8242Z" fill="#C1202C"/>
<path d="M17.8633 7.00781H19.5234V7.07422H19.7891V7.14062H19.9883V7.20703H20.1211V7.27344H20.2539V7.33984H20.3203V7.40625H20.3867V7.47266H20.4531V7.53906H20.5195V7.60547H20.5859V7.73828H20.6523V7.87109H20.7187V8.20312H20.7852V8.46875H20.7187V8.80078H20.6523V9H20.5859V9.06641H20.5195V9.19922H20.4531V9.26562H20.3867V9.33203H20.3203V9.39844H20.1875V9.46484H20.1211V9.53125H19.9883V9.59766H19.8555V9.66406H19.6562V9.73047H19.2578V9.79688H18.7266V11.2578H17.8633V7.00781ZM18.793 7.73828V7.80469H18.7266V9H19.3906V8.93359H19.5234V8.86719H19.5898V8.80078H19.6562V8.73438H19.7227V8.60156H19.7891V8.46875H19.8555V8.20312H19.7891V8.07031H19.7227V7.9375H19.5898V7.87109H19.5234V7.80469H19.1914V7.73828H18.793Z" fill="#C1202C"/>
<path d="M13.8789 7.00781H17V7.07422H17.0664V7.73828H17V7.80469H15.8711V11.2578H15.0078V7.80469H13.8789V7.00781Z" fill="#C1202C"/>
<path d="M14.4766 14.1797H17V14.2461H17.1328V14.3125H17.2656V14.3789H17.332V14.4453H17.3984V14.5781H17.4648V14.7773H17.5312V15.043H17.4648V15.2422H17.3984V15.3086H17.332V15.4414H17.2656V15.5078H17.1328V15.5742H16.9336V15.6406H14.4766V15.5742H14.3437V15.5078H14.2109V15.4414H14.1445V15.375H14.0781V15.2422H14.0117V15.043H13.9453V14.7109H14.0117V14.5781H14.0781V14.4453H14.1445V14.3789H14.2109V14.3125H14.3437V14.2461H14.4766V14.1797Z" fill="#C1202C"/>
<path d="M19.7891 14.1797H22.3125V14.2461H22.4453V14.3125H22.5781V14.3789H22.6445V14.5117H22.7109V14.5781H22.7773V15.1758H22.7109V15.3086H22.6445V15.375H22.5781V15.4414H22.5117V15.5078H22.4453V15.5742H22.2461V15.6406H19.7891V15.5742H19.6562V15.5078H19.5234V15.4414H19.457V15.375H19.3906V15.2422H19.3242V15.1094H19.2578V14.7109H19.3242V14.5117H19.3906V14.4453H19.457V14.3789H19.5234V14.3125H19.5898V14.2461H19.7891V14.1797Z" fill="#D22936"/>
<path d="M9.29687 14.1797H11.8203V14.2461H11.9531V14.3125H12.0195V14.3789H12.0859V14.4453H12.1523V14.5117H12.2187V14.6445H12.2852V15.1758H12.2187V15.3086H12.1523V15.375H12.0859V15.4414H12.0195V15.5078H11.9531V15.5742H11.7539V15.6406H9.29687V15.5742H9.16406V15.5078H9.03125V15.4414H8.96484V15.375H8.89844V15.3086H8.83203V15.1094H8.76562V14.6445H8.83203V14.5117H8.89844V14.4453H8.96484V14.3789H9.03125V14.3125H9.09766V14.2461H9.29687V14.1797Z" fill="#C1202C"/>
<path d="M6.64062 2.625H6.70703V32.375H6.64062V2.625Z" fill="#0995D2"/>
<path d="M25.4336 14.9766H25.5664V15.043H25.832V15.1094H25.9648V15.1758H26.0312V15.2422H26.0977V15.3086H26.1641V15.4414H26.2305V15.5742H26.2969V16.0391H26.2305V16.1719H26.1641V16.3047H26.0977V16.3711H26.0312V16.4375H25.8984V16.5039H25.7656V16.5703H25.2344V16.5039H25.1016V16.4375H25.0352V16.3711H24.9687V16.3047H24.9023V16.2383H24.8359V16.1719H24.7695V15.9727H24.7031V15.6406H24.7695V15.4414H24.8359V15.3086H24.9023V15.2422H24.9687V15.1758H25.0352V15.1094H25.168V15.043H25.4336V14.9766Z" fill="#0995D2"/>
<path d="M7.37109 33.0391H24.1055V33.1055H7.37109V33.0391Z" fill="#0995D2"/>
<path d="M24.7695 2.625H24.8359V12.8516H24.7695V2.625Z" fill="#0995D2"/>
<path d="M7.37109 1.89453H11.6211V1.96094H7.37109V1.89453Z" fill="#0995D2"/>
<path d="M20.1211 1.89453H24.1055V1.96094H20.1211V1.89453Z" fill="#0995D2"/>
<path d="M13.8789 7.00781H17V7.07422H13.8789V7.00781Z" fill="#0995D2"/>
<path d="M19.7891 15.5742H22.2461V15.6406H19.7891V15.5742Z" fill="#0995D2"/>
<path d="M14.4766 15.5742H16.9336V15.6406H14.4766V15.5742Z" fill="#0995D2"/>
<path d="M9.29688 15.5742H11.7539V15.6406H9.29688V15.5742Z" fill="#0995D2"/>
<path d="M15.8711 7.73828H17V7.80469H15.8711V7.73828Z" fill="#0995D2"/>
<path d="M13.8789 7.73828H15.0078V7.80469H13.8789V7.73828Z" fill="#0995D2"/>
<path d="M16.5352 20.0234H16.6016V21.0195H16.5352V20.0234Z" fill="#0995D2"/>
<path d="M24.7695 31.5781H24.8359V32.375H24.7695V31.5781Z" fill="#0995D2"/>
<path d="M17 7.07422H17.0664V7.73828H17V7.07422Z" fill="#0995D2"/>
<path d="M18.7266 9.73047H19.2578V9.79688H18.7266V9.73047Z" fill="#0995D2"/>
<path d="M11.0234 6.94141H11.4883V7.00781H11.0234V6.94141Z" fill="#0995D2"/>
<path d="M27.4922 18.8945H27.8906V18.9609H27.4922V18.8945Z" fill="#0995D2"/>
<path d="M17.4648 18.8945H17.8633V18.9609H17.4648V18.8945Z" fill="#0995D2"/>
<path d="M18.7266 9H19.125V9.06641H18.7266V9Z" fill="#0995D2"/>
<path d="M28.6875 19.4922H28.7539V19.8242H28.6875V19.4922Z" fill="#0995D2"/>
<path d="M13.9453 14.7109H14.0117V15.043H13.9453V14.7109Z" fill="#0995D2"/>
<path d="M11.0898 7.67188H11.4219V7.73828H11.0898V7.67188Z" fill="#0995D2"/>
<path d="M7.03906 34.4336H7.30469V34.5H7.03906V34.4336Z" fill="#0995D2"/>
<path d="M22.5117 31.1797H22.7773V31.2461H22.5117V31.1797Z" fill="#0995D2"/>
<path d="M28.6875 21.418H28.7539V21.6836H28.6875V21.418Z" fill="#0995D2"/>
<path d="M17.4648 14.7773H17.5312V15.043H17.4648V14.7773Z" fill="#0995D2"/>
<path d="M20.7188 8.20312H20.7852V8.46875H20.7188V8.20312Z" fill="#0995D2"/>
<path d="M7.03906 0.5H7.30469V0.566406H7.03906V0.5Z" fill="#0995D2"/>
<path d="M28.6875 21.2188H28.7539V21.418H28.6875V21.2188Z" fill="#0995D2"/>
<path d="M24.9023 21.0195H25.1016V21.0859H24.9023V21.0195Z" fill="#0995D2"/>
<path d="M22.7109 16.7031H22.9102V16.7695H22.7109V16.7031Z" fill="#0995D2"/>
<path d="M22.1133 14.1797H22.3125V14.2461H22.1133V14.1797Z" fill="#0995D2"/>
<path d="M11.6211 14.1797H11.8203V14.2461H11.6211V14.1797Z" fill="#0995D2"/>
<path d="M25.3008 13.3164H25.5V13.3828H25.3008V13.3164Z" fill="#0995D2"/>
<path d="M11.4883 11.2578H11.6875V11.3242H11.4883V11.2578Z" fill="#0995D2"/>
<path d="M10.7578 11.2578H10.957V11.3242H10.7578V11.2578Z" fill="#0995D2"/>
<path d="M13.1484 9.53125H13.2148V9.73047H13.1484V9.53125Z" fill="#0995D2"/>
<path d="M9.23047 9.53125H9.29687V9.73047H9.23047V9.53125Z" fill="#0995D2"/>
<path d="M17.8633 7.00781H18.0625V7.07422H17.8633V7.00781Z" fill="#0995D2"/>
<path d="M24.3047 34.4336H24.4375V34.5H24.3047V34.4336Z" fill="#0995D2"/>
<path d="M24.1719 34.4336H24.3047V34.5H24.1719V34.4336Z" fill="#0995D2"/>
<path d="M7.03906 34.4336H7.17187V34.5H7.03906V34.4336Z" fill="#0995D2"/>
<path d="M5.24609 32.6406H5.3125V32.7734H5.24609V32.6406Z" fill="#0995D2"/>
<path d="M26.1641 32.5742H26.2305V32.707H26.1641V32.5742Z" fill="#0995D2"/>
<path d="M26.1641 31.5117H26.2305V31.6445H26.1641V31.5117Z" fill="#0995D2"/>
<path d="M24.7695 31.5781H24.8359V31.7109H24.7695V31.5781Z" fill="#0995D2"/>
<path d="M19.9883 23.8086H20.0547V23.9414H19.9883V23.8086Z" fill="#0995D2"/>
<path d="M28.4883 23.0117H28.5547V23.1445H28.4883V23.0117Z" fill="#0995D2"/>
<path d="M16.7344 22.8125H16.8008V22.9453H16.7344V22.8125Z" fill="#0995D2"/>
<path d="M28.5547 22.6133H28.6211V22.7461H28.5547V22.6133Z" fill="#0995D2"/>
<path d="M16.668 22.4141H16.7344V22.5469H16.668V22.4141Z" fill="#0995D2"/>
<path d="M28.6211 22.1484H28.6875V22.2812H28.6211V22.1484Z" fill="#0995D2"/>
<path d="M16.6016 21.8164H16.668V21.9492H16.6016V21.8164Z" fill="#0995D2"/>
<path d="M16.6016 21.6836H16.668V21.8164H16.6016V21.6836Z" fill="#0995D2"/>
<path d="M28.6875 19.4922H28.7539V19.625H28.6875V19.4922Z" fill="#0995D2"/>
<path d="M17 18.9609H17.1328V19.0273H17V18.9609Z" fill="#0995D2"/>
<path d="M27.3594 18.8945H27.4922V18.9609H27.3594V18.8945Z" fill="#0995D2"/>
<path d="M17.8633 18.8945H17.9961V18.9609H17.8633V18.8945Z" fill="#0995D2"/>
<path d="M18.3281 18.8281H18.4609V18.8945H18.3281V18.8281Z" fill="#0995D2"/>
<path d="M18.7266 18.7617H18.8594V18.8281H18.7266V18.7617Z" fill="#0995D2"/>
<path d="M22.4453 16.7031H22.5781V16.7695H22.4453V16.7031Z" fill="#0995D2"/>
<path d="M25.2344 16.5039H25.3672V16.5703H25.2344V16.5039Z" fill="#0995D2"/>
<path d="M24.7031 15.8398H24.7695V15.9727H24.7031V15.8398Z" fill="#0995D2"/>
<path d="M26.2305 15.5742H26.2969V15.707H26.2305V15.5742Z" fill="#0995D2"/>
<path d="M24.7031 15.6406H24.7695V15.7734H24.7031V15.6406Z" fill="#0995D2"/>
<path d="M19.7891 15.5742H19.9219V15.6406H19.7891V15.5742Z" fill="#0995D2"/>
<path d="M14.4766 15.5742H14.6094V15.6406H14.4766V15.5742Z" fill="#0995D2"/>
<path d="M11.6211 15.5742H11.7539V15.6406H11.6211V15.5742Z" fill="#0995D2"/>
<path d="M9.29688 15.5742H9.42969V15.6406H9.29688V15.5742Z" fill="#0995D2"/>
<path d="M25.4336 14.9766H25.5664V15.043H25.4336V14.9766Z" fill="#0995D2"/>
<path d="M19.2578 14.7109H19.3242V14.8438H19.2578V14.7109Z" fill="#0995D2"/>
<path d="M13.9453 14.7109H14.0117V14.8438H13.9453V14.7109Z" fill="#0995D2"/>
<path d="M8.76562 14.6445H8.83203V14.7773H8.76562V14.6445Z" fill="#0995D2"/>
<path d="M22.7109 14.5781H22.7773V14.7109H22.7109V14.5781Z" fill="#C1202C"/>
<path d="M19.7891 14.1797H19.9219V14.2461H19.7891V14.1797Z" fill="#0995D2"/>
<path d="M14.4766 14.1797H14.6094V14.2461H14.4766V14.1797Z" fill="#0995D2"/>
<path d="M9.29688 14.1797H9.42969V14.2461H9.29688V14.1797Z" fill="#0995D2"/>
<path d="M24.7695 12.7188H24.8359V12.8516H24.7695V12.7188Z" fill="#0995D2"/>
<path d="M11.3555 11.2578H11.4883V11.3242H11.3555V11.2578Z" fill="#0995D2"/>
<path d="M10.4922 11.1914H10.625V11.2578H10.4922V11.1914Z" fill="#0995D2"/>
<path d="M11.4219 10.5273H11.5547V10.5938H11.4219V10.5273Z" fill="#0995D2"/>
<path d="M10.957 10.5273H11.0898V10.5938H10.957V10.5273Z" fill="#0995D2"/>
<path d="M12.2188 9.66406H12.2852V9.79688H12.2188V9.66406Z" fill="#0995D2"/>
<path d="M10.1602 9.59766H10.2266V9.73047H10.1602V9.59766Z" fill="#0995D2"/>
<path d="M12.2852 9.06641H12.3516V9.19922H12.2852V9.06641Z" fill="#0995D2"/>
<path d="M10.0938 9.06641H10.1602V9.19922H10.0938V9.06641Z" fill="#0995D2"/>
<path d="M13.1484 8.53516H13.2148V8.66797H13.1484V8.53516Z" fill="#0995D2"/>
<path d="M12.2188 8.53516H12.2852V8.66797H12.2188V8.53516Z" fill="#0995D2"/>
<path d="M10.1602 8.53516H10.2266V8.66797H10.1602V8.53516Z" fill="#0995D2"/>
<path d="M9.23047 8.53516H9.29687V8.66797H9.23047V8.53516Z" fill="#0995D2"/>
<path d="M20.6523 7.87109H20.7187V8.00391H20.6523V7.87109Z" fill="#0995D2"/>
<path d="M19.1914 7.73828H19.3242V7.80469H19.1914V7.73828Z" fill="#0995D2"/>
<path d="M19.3906 7.00781H19.5234V7.07422H19.3906V7.00781Z" fill="#0995D2"/>
<path d="M10.5586 7.00781H10.6914V7.07422H10.5586V7.00781Z" fill="#0995D2"/>
<path d="M12.8828 4.08594H13.0156V4.15234H12.8828V4.08594Z" fill="#0995D2"/>
<path d="M11.8203 2.95703H11.8867V3.08984H11.8203V2.95703Z" fill="#0995D2"/>
<path d="M26.1641 2.29297H26.2305V2.42578H26.1641V2.29297Z" fill="#0995D2"/>
<path d="M5.24609 2.22656H5.3125V2.35938H5.24609V2.22656Z" fill="#0995D2"/>
<path d="M11.6211 2.09375H11.6875V2.22656H11.6211V2.09375Z" fill="#0995D2"/>
<path d="M5.3125 1.96094H5.37891V2.09375H5.3125V1.96094Z" fill="#0995D2"/>
<path d="M24.3047 0.5H24.4375V0.566406H24.3047V0.5Z" fill="#0995D2"/>
<path d="M24.1719 0.5H24.3047V0.566406H24.1719V0.5Z" fill="#0995D2"/>
<path d="M7.03906 0.5H7.17187V0.566406H7.03906V0.5Z" fill="#0995D2"/>
</g>
<defs>
<clipPath id="clip0_10150_2471">
<rect width="34" height="34" fill="white" transform="translate(0 0.5)"/>
</clipPath>
</defs>
</svg>
