<svg width="35" height="29" viewBox="0 0 35 29" fill="none" xmlns="http://www.w3.org/2000/svg">
<mask id="path-1-inside-1_10150_2612" fill="white">
<rect y="11.7148" width="28.55" height="17.13" rx="1.142"/>
</mask>
<rect y="11.7148" width="28.55" height="17.13" rx="1.142" stroke="#0995D2" stroke-width="2.63162" mask="url(#path-1-inside-1_10150_2612)"/>
<path d="M1.03028 28.2728L14.2743 17.788L27.5184 28.2728H1.03028Z" stroke="#0995D2" stroke-width="0.571"/>
<path d="M1.28889 12.4248L1.22125 12.6007L14.7567 23.1744L27.3466 12.4248H1.28889Z" fill="white" stroke="#0995D2" stroke-width="0.571"/>
<path d="M20.7182 2.525L20.9982 3.035L20.3832 3.25L20.9982 3.46L20.6982 3.99L20.1982 3.55L20.3232 4.2H19.7382L19.8582 3.55L19.3632 3.995L19.0532 3.455L19.6682 3.24L19.0582 3.04L19.3432 2.525L19.8632 2.96L19.7332 2.3H20.3282L20.1982 2.96L20.7182 2.525ZM24.0391 2.525L24.3191 3.035L23.7041 3.25L24.3191 3.46L24.0191 3.99L23.5191 3.55L23.6441 4.2H23.0591L23.1791 3.55L22.6841 3.995L22.3741 3.455L22.9891 3.24L22.3791 3.04L22.6641 2.525L23.1841 2.96L23.0541 2.3H23.6491L23.5191 2.96L24.0391 2.525ZM27.36 2.525L27.64 3.035L27.025 3.25L27.64 3.46L27.34 3.99L26.84 3.55L26.965 4.2H26.38L26.5 3.55L26.005 3.995L25.695 3.455L26.31 3.24L25.7 3.04L25.985 2.525L26.505 2.96L26.375 2.3H26.97L26.84 2.96L27.36 2.525ZM30.6809 2.525L30.9609 3.035L30.3459 3.25L30.9609 3.46L30.6609 3.99L30.1609 3.55L30.2859 4.2H29.7009L29.8209 3.55L29.3259 3.995L29.0159 3.455L29.6309 3.24L29.0209 3.04L29.3059 2.525L29.8259 2.96L29.6959 2.3H30.2909L30.1609 2.96L30.6809 2.525Z" fill="#D22936"/>
<path d="M20.4167 7.2H20.141L19.9939 7.43308L18.3817 9.98672L17.113 7.47459L16.9743 7.2H16.6667H16C15.7239 7.2 15.5 6.97614 15.5 6.7V1C15.5 0.723858 15.7239 0.5 16 0.5H34C34.2761 0.5 34.5 0.723858 34.5 1V6.7C34.5 6.97614 34.2761 7.2 34 7.2H20.4167Z" stroke="#C4122F"/>
</svg>
