<svg width="251" height="60" viewBox="0 0 251 60" fill="none" xmlns="http://www.w3.org/2000/svg">
<path fill-rule="evenodd" clip-rule="evenodd" d="M147.224 39.8693C148.69 40.4482 149.874 40.7377 150.766 40.7377C152.552 40.7377 153.83 39.8954 154.597 38.2133L155.076 37.0009H151.054L148.181 10.8459L157.039 10.146L158.14 24.2366V28.8322C158.238 27.8974 158.362 27.2165 158.521 26.78C158.619 26.3126 158.907 25.4442 159.386 24.1773L164.243 10.8341L173.098 10.1508L161.542 39.0033L160.87 40.555C160.775 40.7899 160.623 41.122 160.414 41.5586C160.205 41.9904 159.942 42.4744 159.624 43.0082C159.082 44.0402 158.172 44.9774 156.896 45.8125C155.587 46.5433 153.91 46.9063 151.867 46.9063C149.824 46.9063 147.494 46.5409 144.779 45.8125L147.224 39.8669V39.8693ZM210.35 18.2103C209.808 17.8758 209.202 17.7097 208.532 17.7097C206.935 17.7097 205.866 18.2696 205.323 19.3895C204.779 20.5093 204.372 21.6956 204.102 22.9483C203.83 24.201 203.694 25.3137 203.694 26.2817C203.694 29.022 204.697 30.3934 206.71 30.3934C207.348 30.3934 208.033 30.2107 208.771 29.8429L210.35 18.2103ZM212.604 0.990375L221.028 0.238281L216.142 37.0009H207.954L208.144 35.3994C206.006 36.8728 204.08 37.6083 202.357 37.6083C200.029 37.6083 198.186 36.702 196.831 34.887C195.476 33.072 194.8 30.5167 194.8 27.2236C194.8 22.3979 195.907 18.3432 198.124 15.0643C200.342 11.7878 203.081 10.146 206.333 10.146C207.96 10.146 209.572 10.6727 211.167 11.7214L212.602 0.990375H212.604ZM184.035 30.894L182.644 31.2902L181.546 31.4396C180.715 31.4396 180.045 31.2237 179.535 30.7943C179.056 30.2984 178.815 29.6863 178.815 28.958C178.815 27.8025 179.237 26.8654 180.084 26.1536C180.928 25.4418 182.038 25.086 183.413 25.086L184.802 25.1856L184.035 30.894ZM191.722 11.0856C190.14 10.0678 188.079 9.49834 184.898 9.55765C181.716 9.61934 180.431 9.84473 178.879 10.1366C178.014 10.2979 177.088 10.4877 175.885 10.7937L173.001 17.9304C177.002 16.5092 179.544 15.8734 181.548 15.9303C183.55 15.992 184.099 16.1984 184.707 16.6112C185.313 17.0241 185.619 17.5436 185.619 18.1724L185.379 21.2353C183.527 20.6825 181.82 20.4026 180.254 20.4026C177.283 20.4026 174.832 21.3848 172.901 23.3469C170.97 25.309 170.005 27.7195 170.005 30.576C170.005 32.7398 170.602 34.4528 171.8 35.715C172.998 36.9796 174.651 37.6083 176.757 37.6083C179.085 37.6083 181.321 36.683 183.461 34.8276L183.652 37.0009H191.409L194.089 15.4606C194.089 13.5601 193.299 12.101 191.72 11.0856H191.722ZM127.206 0.990375L135.57 0.240656L134.035 12.0204C136.275 10.7558 138.404 10.1223 140.422 10.1223C142.439 10.1223 143.971 10.6158 145.124 11.6004C146.277 12.585 146.854 13.9611 146.854 15.731V17.2827L146.663 18.4333L144.16 37.0056L135.835 36.9985L137.991 20.7798L138.107 19.2827C138.107 18.6825 137.907 18.1771 137.508 17.7596C137.111 17.342 136.561 17.1356 135.862 17.1356C135.066 17.1356 134.192 17.4345 133.236 18.0348L130.713 37.0104H122.431L127.206 0.997499V0.990375ZM111.474 30.894L110.085 31.2902L108.984 31.4396C108.156 31.4396 107.486 31.2237 106.974 30.7943C106.495 30.2984 106.256 29.6863 106.256 28.958C106.256 27.8025 106.679 26.8654 107.525 26.1536C108.372 25.4418 109.479 25.086 110.854 25.086L112.241 25.1856L111.474 30.894ZM119.161 11.0856C117.581 10.0678 115.521 9.49834 112.336 9.55765C109.157 9.61934 107.872 9.84473 106.32 10.1366C105.453 10.2979 104.527 10.4877 103.326 10.7937L100.44 17.9304C104.443 16.5092 106.985 15.8734 108.984 15.9303C110.988 15.992 111.54 16.1984 112.144 16.6112C112.749 17.0241 113.056 17.5436 113.056 18.1724L112.815 21.2353C110.963 20.6825 109.254 20.4026 107.691 20.4026C104.722 20.4026 102.271 21.3848 100.34 23.3469C98.4083 25.309 97.4438 27.7195 97.4438 30.576C97.4438 32.7398 98.0407 34.4528 99.239 35.715C100.437 36.9796 102.09 37.6083 104.196 37.6083C106.524 37.6083 108.76 36.683 110.9 34.8276L111.09 37.0009H118.85L121.533 15.4606C121.533 13.5601 120.74 12.101 119.161 11.0856ZM244.361 11.0737C242.609 10.4212 241.284 10.2433 240.835 10.1982L237.212 37.0033H245.485L248.68 13.3276C248.147 12.9528 246.531 11.8804 244.359 11.0737H244.361ZM249.382 8.1697L250.457 0.238281L242.078 0.990375L241.009 8.94553L249.382 8.16733V8.1697ZM223.287 10.5423L231.668 9.98946L231.38 12.1627C233.263 10.7155 235.115 9.98946 236.936 9.98946H237.989L236.913 17.6385C236.913 17.6385 235.923 17.3538 234.062 17.4203C232.201 17.4914 230.613 18.0846 230.613 18.0846L228.075 36.8443H219.789L223.284 10.5423H223.287ZM75.0323 28.398C77.6967 29.6745 80.0865 30.3103 82.204 30.3103C83.6156 30.3103 84.7867 29.9782 85.7172 29.3115C86.6477 28.6472 87.1129 27.7978 87.1129 26.7681C87.1129 26.035 86.8905 25.4869 86.4434 25.1216C86.0621 24.723 85.5697 24.3742 84.9637 24.0753L81.2394 22.0776C79.3307 21.0811 77.8192 19.8854 76.7049 18.4855C75.5883 17.0905 75.0323 15.3751 75.0323 13.3466C75.0323 9.55527 76.3645 6.43775 79.0312 3.99403C81.6956 1.5503 85.1021 0.326064 89.2508 0.326064C92.0605 0.326064 95.1561 0.909712 98.5423 2.07701L95.669 9.11872C94.3595 8.59202 93.1839 8.19817 92.149 7.93245C91.1118 7.6691 90.1132 7.53624 89.1555 7.53624C87.8165 7.53624 86.7067 7.82806 85.8284 8.41171C84.9501 8.99298 84.5121 9.74982 84.5121 10.6799C84.5121 11.413 84.6868 11.9088 85.0363 12.1769L85.9918 12.8246L86.709 13.2731L89.0488 14.5186C92.1694 16.0489 94.2778 17.4843 95.3785 18.8343C96.477 20.1795 97.0285 21.8664 97.0285 23.895C97.0285 27.7836 95.5737 31.0434 92.6687 33.6675C89.7637 36.2963 86.1098 37.6059 81.7024 37.6059C80.6493 37.6059 79.8754 37.5893 79.3807 37.5561C78.8859 37.5205 78.2073 37.4042 77.3449 37.2049C76.0354 36.9724 74.2947 36.4718 72.125 35.7055L75.0345 28.3933L75.0323 28.398Z" fill="#C1202C"/>
<path fill-rule="evenodd" clip-rule="evenodd" d="M29.6989 0.420431C29.6013 0.0906472 22.1572 4.91166 22.5249 6.16911C24.2906 12.1977 27.2069 19.5645 25.3346 25.8328C26.2583 25.5481 27.1388 25.1495 27.9695 24.618C36.2351 18.9358 32.0206 8.34711 29.7011 0.420431H29.6989ZM26.5147 59.1552C26.6123 59.485 34.0586 54.664 33.691 53.4041C31.9275 47.3755 29.0089 40.0087 30.8813 33.7405C29.9599 34.0275 29.077 34.4238 28.2486 34.9552C19.9808 40.6375 24.1975 51.2261 26.517 59.1528L26.5147 59.1552Z" fill="#0788C1"/>
<path fill-rule="evenodd" clip-rule="evenodd" d="M27.6677 29.1451C26.0132 30.813 24.4813 32.2627 20.9613 33.6648C14.8177 36.2889 7.79124 34.0183 0.0158604 31.6055C-0.306412 31.5058 4.37561 23.8354 5.59662 24.215C12.3121 26.3004 21.6739 29.9494 27.9605 25.9161C27.9605 25.9161 30.196 24.3787 32.0638 21.6621C30.5977 25.8852 29.152 27.6338 27.6677 29.1475V29.1451ZM28.546 30.4287C30.2005 28.7631 31.7302 27.3112 35.2525 25.909C41.3961 23.2826 48.4225 25.5555 56.1979 27.9683C56.5202 28.068 51.8381 35.7384 50.6171 35.3588C43.9016 33.2734 34.5398 29.6244 28.2533 33.6577C28.2533 33.6577 26.0178 35.1951 24.1522 37.9141C25.6183 33.6909 27.064 31.9424 28.546 30.4263V30.4287Z" fill="#C1202C"/>
<path fill-rule="evenodd" clip-rule="evenodd" d="M73.1523 49.8027H74.8568V53.5276H78.2247V49.8027H79.9359V59.0082H78.2247V54.9346H74.8568V59.0082H73.1523V49.8027Z" fill="#050605"/>
<path fill-rule="evenodd" clip-rule="evenodd" d="M99.8035 49.5996C101.074 49.5996 102.075 50.0267 102.808 50.8832C103.541 51.7373 103.907 52.9093 103.907 54.4016C103.907 55.894 103.541 57.0684 102.813 57.9201C102.084 58.7719 101.081 59.1966 99.8012 59.1966C98.5212 59.1966 97.5249 58.7719 96.7987 57.9201C96.0702 57.0708 95.707 55.8964 95.707 54.4016C95.707 52.9069 96.0724 51.7278 96.8009 50.876C97.5295 50.0243 98.5303 49.5996 99.8012 49.5996H99.8035ZM99.8035 50.9686C99.0977 50.9686 98.528 51.2794 98.0946 51.8986C97.6611 52.5178 97.4455 53.3459 97.4455 54.3779C97.4455 55.41 97.6611 56.2451 98.09 56.8691C98.5212 57.4931 99.0909 57.8063 99.8012 57.8063C100.512 57.8063 101.084 57.4931 101.519 56.8667C101.953 56.2404 102.171 55.4124 102.171 54.3803C102.171 53.3482 101.953 52.5273 101.519 51.9057C101.084 51.2841 100.512 50.9733 99.8012 50.9733L99.8035 50.9686Z" fill="#050605"/>
<path fill-rule="evenodd" clip-rule="evenodd" d="M124.725 50.0413L124.58 51.4862C124.255 51.3296 123.933 51.2134 123.615 51.1375C123.298 51.0592 122.982 51.0212 122.669 51.0212C122.211 51.0212 121.854 51.1113 121.598 51.2893C121.341 51.4696 121.214 51.7211 121.214 52.0438C121.214 52.4447 121.677 52.8955 122.603 53.3914C122.692 53.4388 122.762 53.4744 122.81 53.5005C123.674 53.9679 124.265 54.4092 124.578 54.8268C124.893 55.2443 125.05 55.7426 125.05 56.3262C125.05 57.178 124.746 57.8731 124.135 58.4117C123.527 58.9526 122.726 59.2207 121.736 59.2207C121.33 59.2207 120.645 59.0641 119.685 58.7533C119.582 58.7201 119.505 58.6916 119.453 58.6679L119.612 57.0949C120.1 57.3488 120.506 57.5315 120.835 57.6382C121.164 57.745 121.464 57.7996 121.736 57.7996C122.195 57.7996 122.567 57.6857 122.853 57.4603C123.139 57.2325 123.282 56.9478 123.282 56.6014C123.282 56.153 122.819 55.6595 121.893 55.1257C121.827 55.0854 121.779 55.0593 121.748 55.0403C121.711 55.0189 121.652 54.9857 121.571 54.943C120.885 54.5539 120.402 54.2004 120.123 53.8801C119.923 53.6571 119.773 53.4009 119.669 53.1161C119.567 52.8314 119.514 52.5278 119.514 52.2075C119.514 51.4245 119.803 50.7958 120.377 50.3165C120.951 49.8373 121.72 49.5977 122.683 49.5977C123.057 49.5977 123.6 49.7044 124.314 49.9156C124.501 49.9725 124.639 50.0129 124.727 50.039L124.725 50.0413Z" fill="#050605"/>
<path fill-rule="evenodd" clip-rule="evenodd" d="M140.879 49.8027H143.448C144.569 49.8027 145.398 50.0376 145.94 50.505C146.48 50.9748 146.75 51.6937 146.75 52.6664C146.75 53.5656 146.469 54.2631 145.904 54.759C145.339 55.2548 144.542 55.504 143.509 55.504H142.583V59.0082H140.879V49.8027ZM142.586 51.0981V54.2086H143.287C143.843 54.2086 144.27 54.0757 144.565 53.81C144.862 53.5442 145.009 53.1646 145.009 52.6664C145.009 52.1682 144.869 51.7791 144.585 51.5062C144.304 51.2334 143.902 51.0981 143.382 51.0981H142.586Z" fill="#050605"/>
<path d="M163.923 49.8027H162.219V59.0082H163.923V49.8027Z" fill="#050605"/>
<path fill-rule="evenodd" clip-rule="evenodd" d="M179.258 49.8027H185.553V51.2215H183.248V59.0082H181.534V51.2215H179.258V49.8027Z" fill="#050605"/>
<path fill-rule="evenodd" clip-rule="evenodd" d="M203.2 49.8027H205.258L208.601 59.0082H206.763L206.044 56.8326H202.274L201.525 59.0082H199.832L203.2 49.8027ZM204.199 51.3378L202.748 55.4779H205.592L204.196 51.3378H204.199Z" fill="#050605"/>
<path fill-rule="evenodd" clip-rule="evenodd" d="M223.57 49.8027H225.277V57.6037H228.747V59.0082H223.57V49.8027Z" fill="#050605"/>
<path fill-rule="evenodd" clip-rule="evenodd" d="M249.122 50.0413L248.974 51.4862C248.65 51.3296 248.328 51.2134 248.01 51.1375C247.692 51.0592 247.377 51.0212 247.064 51.0212C246.605 51.0212 246.247 51.1113 245.992 51.2893C245.736 51.4696 245.609 51.7211 245.609 52.0438C245.609 52.4447 246.072 52.8955 246.998 53.3914C247.086 53.4388 247.157 53.4744 247.204 53.5005C248.069 53.9679 248.659 54.4092 248.972 54.8268C249.288 55.2443 249.444 55.7426 249.444 56.3262C249.444 57.178 249.14 57.8731 248.53 58.4117C247.921 58.9526 247.12 59.2207 246.131 59.2207C245.725 59.2207 245.041 59.0641 244.079 58.7533C243.977 58.7201 243.9 58.6916 243.848 58.6679L244.007 57.0949C244.494 57.3488 244.903 57.5315 245.23 57.6382C245.559 57.745 245.858 57.7996 246.131 57.7996C246.589 57.7996 246.961 57.6857 247.247 57.4603C247.533 57.2325 247.676 56.9478 247.676 56.6014C247.676 56.153 247.213 55.6595 246.287 55.1257C246.222 55.0854 246.174 55.0593 246.142 55.0403C246.106 55.0189 246.047 54.9857 245.965 54.943C245.28 54.5539 244.796 54.2004 244.515 53.8801C244.315 53.6571 244.163 53.4009 244.061 53.1161C243.959 52.8314 243.907 52.5278 243.907 52.2075C243.907 51.4245 244.195 50.7958 244.769 50.3165C245.343 49.8373 246.11 49.5977 247.075 49.5977C247.449 49.5977 247.992 49.7044 248.707 49.9156C248.893 49.9725 249.031 50.0129 249.12 50.039L249.122 50.0413Z" fill="#050605"/>
<path fill-rule="evenodd" clip-rule="evenodd" d="M63.1057 1.98108C62.468 1.3144 61.5829 0.89919 60.607 0.89919C59.6311 0.89919 58.7483 1.31202 58.1083 1.97871C57.4728 2.65014 57.0756 3.57305 57.0756 4.59324C57.0756 5.61344 57.4728 6.53873 58.1105 7.20542C58.7505 7.8721 59.6334 8.28492 60.6093 8.28492C61.5852 8.28492 62.468 7.8721 63.108 7.20304C63.748 6.53399 64.1429 5.61107 64.1429 4.59324C64.1429 3.57542 63.748 2.65014 63.108 1.98108H63.1057ZM60.6047 0C61.8167 0 62.9151 0.514838 63.7094 1.34523C64.5038 2.17562 64.9963 3.32631 64.9963 4.59324C64.9963 5.86018 64.5038 7.00849 63.7094 7.83888C62.9151 8.66928 61.8167 9.18413 60.6025 9.18413C59.3883 9.18413 58.2921 8.66928 57.4978 7.83888C56.7034 7.00612 56.2109 5.85781 56.2109 4.59324C56.2109 3.32868 56.7034 2.17799 57.4978 1.3476C58.2921 0.514841 59.3905 0 60.6025 0H60.6047ZM59.8513 4.25635H60.4776C60.8839 4.25635 61.1358 4.23737 61.2379 4.20178C61.3378 4.16619 61.4172 4.1045 61.4762 4.01672C61.533 3.92893 61.5625 3.81742 61.5625 3.68693C61.5625 3.53983 61.5239 3.42122 61.449 3.32869C61.3741 3.23853 61.2674 3.18158 61.1313 3.15786C61.0609 3.14837 60.8567 3.14125 60.514 3.14125H59.8535V4.25397L59.8513 4.25635ZM59.0025 6.78311V2.40339H60.784C61.2311 2.40339 61.5579 2.44372 61.7599 2.52202C61.9642 2.60031 62.1253 2.7403 62.2479 2.94196C62.3704 3.14363 62.4317 3.37376 62.4317 3.63237C62.4317 3.96215 62.3409 4.23262 62.1548 4.44615C61.9687 4.65968 61.6964 4.79492 61.3287 4.85186C61.5103 4.96337 61.6601 5.08436 61.7781 5.2196C61.8984 5.35246 62.0572 5.58972 62.2569 5.93136L62.7699 6.78549H61.7577L61.1517 5.82935C60.9338 5.49007 60.784 5.27417 60.7023 5.18638C60.6229 5.0986 60.5367 5.03692 60.4481 5.00608C60.3574 4.97286 60.2144 4.95625 60.0192 4.95625H59.849V6.78549H59.0002L59.0025 6.78311Z" fill="#8F8F8D"/>
</svg>
