<svg width="250" height="40" viewBox="0 0 250 40" fill="none" xmlns="http://www.w3.org/2000/svg">
<path d="M169.524 21.616H171.595V33.002H169.524V27.9579H164.579V33.002H162.509V21.616H164.579V26.1671H169.524V21.616ZM176.339 27.3007C176.339 27.9251 176.415 28.4947 176.569 29.0095C176.722 29.5133 176.941 29.946 177.226 30.3074C177.522 30.6579 177.878 30.9318 178.294 31.1289C178.71 31.3261 179.181 31.4247 179.707 31.4247C180.222 31.4247 180.687 31.3261 181.103 31.1289C181.52 30.9318 181.87 30.6579 182.155 30.3074C182.451 29.946 182.675 29.5133 182.829 29.0095C182.982 28.4947 183.059 27.9251 183.059 27.3007C183.059 26.6764 182.982 26.1123 182.829 25.6085C182.675 25.0936 182.451 24.661 182.155 24.3105C181.87 23.949 181.52 23.6697 181.103 23.4726C180.687 23.2754 180.222 23.1768 179.707 23.1768C179.181 23.1768 178.71 23.2754 178.294 23.4726C177.878 23.6697 177.522 23.949 177.226 24.3105C176.941 24.6719 176.722 25.1046 176.569 25.6085C176.415 26.1123 176.339 26.6764 176.339 27.3007ZM185.227 27.3007C185.227 28.2756 185.079 29.1354 184.784 29.8803C184.499 30.6251 184.105 31.2494 183.601 31.7533C183.108 32.2462 182.527 32.6186 181.859 32.8705C181.191 33.1224 180.479 33.2484 179.723 33.2484C178.968 33.2484 178.25 33.1224 177.571 32.8705C176.903 32.6186 176.317 32.2462 175.813 31.7533C175.32 31.2494 174.926 30.6251 174.63 29.8803C174.334 29.1354 174.186 28.2756 174.186 27.3007C174.186 26.3259 174.334 25.4715 174.63 24.7377C174.926 23.9928 175.326 23.3685 175.829 22.8646C176.344 22.3608 176.936 21.9829 177.604 21.731C178.272 21.479 178.978 21.3531 179.723 21.3531C180.468 21.3531 181.175 21.479 181.843 21.731C182.511 21.9829 183.091 22.3608 183.584 22.8646C184.088 23.3685 184.488 23.9928 184.784 24.7377C185.079 25.4715 185.227 26.3259 185.227 27.3007ZM190.443 31.4575C191.188 31.4575 191.73 31.3316 192.069 31.0796C192.409 30.8277 192.579 30.4717 192.579 30.0117C192.579 29.7379 192.519 29.5024 192.398 29.3052C192.289 29.108 192.124 28.9328 191.905 28.7794C191.697 28.6151 191.44 28.4673 191.133 28.3358C190.826 28.1934 190.476 28.0565 190.081 27.9251C189.687 27.7827 189.304 27.6293 188.931 27.465C188.57 27.2898 188.247 27.0762 187.962 26.8243C187.688 26.5723 187.464 26.2711 187.288 25.9206C187.124 25.5701 187.042 25.1484 187.042 24.6555C187.042 23.6259 187.398 22.8208 188.11 22.2403C188.822 21.6488 189.791 21.3531 191.018 21.3531C191.73 21.3531 192.36 21.4352 192.907 21.5995C193.466 21.7529 193.904 21.9227 194.222 22.1089L193.581 23.7847C193.209 23.5766 192.798 23.4178 192.349 23.3083C191.911 23.1987 191.456 23.144 190.985 23.144C190.426 23.144 189.988 23.259 189.671 23.489C189.364 23.719 189.211 24.0421 189.211 24.4584C189.211 24.7103 189.26 24.9293 189.358 25.1156C189.468 25.2908 189.616 25.4496 189.802 25.592C189.999 25.7344 190.224 25.8659 190.476 25.9863C190.739 26.1068 191.023 26.2218 191.33 26.3314C191.867 26.5285 192.343 26.7312 192.759 26.9393C193.187 27.1364 193.543 27.3774 193.827 27.6622C194.123 27.936 194.348 28.2646 194.501 28.648C194.654 29.0204 194.731 29.475 194.731 30.0117C194.731 31.0413 194.364 31.8409 193.63 32.4105C192.907 32.9691 191.845 33.2484 190.443 33.2484C189.972 33.2484 189.539 33.2155 189.145 33.1498C188.762 33.0951 188.417 33.0239 188.11 32.9362C187.814 32.8486 187.557 32.761 187.338 32.6734C187.119 32.5748 186.943 32.4871 186.812 32.4105L187.42 30.7182C187.715 30.8825 188.115 31.0468 188.619 31.2111C189.123 31.3754 189.731 31.4575 190.443 31.4575ZM200.104 21.501C201.758 21.501 203.023 21.8022 203.9 22.4046C204.787 23.007 205.231 23.949 205.231 25.2306C205.231 25.8987 205.11 26.4738 204.869 26.9557C204.639 27.4267 204.299 27.8155 203.85 28.1222C203.401 28.418 202.854 28.637 202.207 28.7794C201.561 28.9218 200.822 28.993 199.989 28.993H198.954V33.002H196.884V21.7803C197.366 21.6707 197.897 21.5995 198.478 21.5667C199.069 21.5229 199.611 21.501 200.104 21.501ZM200.252 23.2918C199.726 23.2918 199.294 23.3083 198.954 23.3411V27.2186H199.956C200.953 27.2186 201.72 27.0817 202.257 26.8078C202.793 26.5231 203.062 25.9918 203.062 25.2141C203.062 24.8417 202.991 24.5295 202.848 24.2776C202.706 24.0257 202.509 23.8285 202.257 23.6861C202.005 23.5437 201.704 23.4452 201.353 23.3904C201.013 23.3247 200.647 23.2918 200.252 23.2918ZM207.449 21.616H209.52V33.002H207.449V21.616ZM220.511 21.616V23.4068H217.011V33.002H214.925V23.4068H211.425V21.616H220.511ZM229.046 33.002C228.892 32.5529 228.734 32.1093 228.569 31.6711C228.405 31.233 228.246 30.7839 228.093 30.3239H223.295C223.142 30.7839 222.983 31.2385 222.819 31.6876C222.665 32.1257 222.512 32.5638 222.359 33.002H220.206C220.634 31.7861 221.039 30.6634 221.422 29.6338C221.806 28.6042 222.178 27.6293 222.54 26.7093C222.912 25.7892 223.279 24.9129 223.64 24.0805C224.002 23.248 224.374 22.4265 224.758 21.616H226.713C227.096 22.4265 227.469 23.248 227.83 24.0805C228.191 24.9129 228.553 25.7892 228.914 26.7093C229.287 27.6293 229.665 28.6042 230.048 29.6338C230.442 30.6634 230.853 31.7861 231.28 33.002H229.046ZM225.694 23.8176C225.442 24.3981 225.152 25.1046 224.823 25.9371C224.506 26.7695 224.172 27.6732 223.821 28.648H227.567C227.217 27.6732 226.877 26.764 226.548 25.9206C226.22 25.0772 225.935 24.3762 225.694 23.8176ZM240.244 31.2111V33.002H233.048V21.616H235.118V31.2111H240.244ZM245.106 31.4575C245.851 31.4575 246.393 31.3316 246.733 31.0796C247.072 30.8277 247.242 30.4717 247.242 30.0117C247.242 29.7379 247.182 29.5024 247.061 29.3052C246.952 29.108 246.787 28.9328 246.568 28.7794C246.36 28.6151 246.103 28.4673 245.796 28.3358C245.489 28.1934 245.139 28.0565 244.745 27.9251C244.35 27.7827 243.967 27.6293 243.594 27.465C243.233 27.2898 242.91 27.0762 242.625 26.8243C242.351 26.5723 242.127 26.2711 241.951 25.9206C241.787 25.5701 241.705 25.1484 241.705 24.6555C241.705 23.6259 242.061 22.8208 242.773 22.2403C243.485 21.6488 244.454 21.3531 245.681 21.3531C246.393 21.3531 247.023 21.4352 247.57 21.5995C248.129 21.7529 248.567 21.9227 248.885 22.1089L248.244 23.7847C247.872 23.5766 247.461 23.4178 247.012 23.3083C246.574 23.1987 246.119 23.144 245.648 23.144C245.09 23.144 244.651 23.259 244.334 23.489C244.027 23.719 243.874 24.0421 243.874 24.4584C243.874 24.7103 243.923 24.9293 244.022 25.1156C244.131 25.2908 244.279 25.4496 244.465 25.592C244.662 25.7344 244.887 25.8659 245.139 25.9863C245.402 26.1068 245.687 26.2218 245.993 26.3314C246.53 26.5285 247.006 26.7312 247.423 26.9393C247.85 27.1364 248.206 27.3774 248.491 27.6622C248.786 27.936 249.011 28.2646 249.164 28.648C249.318 29.0204 249.394 29.475 249.394 30.0117C249.394 31.0413 249.027 31.8409 248.293 32.4105C247.57 32.9691 246.508 33.2484 245.106 33.2484C244.635 33.2484 244.202 33.2155 243.808 33.1498C243.425 33.0951 243.08 33.0239 242.773 32.9362C242.477 32.8486 242.22 32.761 242.001 32.6734C241.782 32.5748 241.606 32.4871 241.475 32.4105L242.083 30.7182C242.379 30.8825 242.778 31.0468 243.282 31.2111C243.786 31.3754 244.394 31.4575 245.106 31.4575Z" fill="#263238"/>
<path fill-rule="evenodd" clip-rule="evenodd" d="M14.4041 0.00824347C14.358 -0.160432 10.746 2.30812 10.9244 2.95203C11.7797 6.03905 13.1944 9.81015 12.2869 13.019C12.7346 12.8731 13.1629 12.6696 13.5645 12.3978C17.5744 9.48886 15.5288 4.06716 14.4041 0.00958347" fill="#1380B7"/>
<path fill-rule="evenodd" clip-rule="evenodd" d="M12.8619 30.0772C12.9092 30.2458 16.5199 27.7773 16.3428 27.1334C15.4874 24.0464 14.0715 20.2753 14.9803 17.0664C14.5326 17.2123 14.1043 17.4158 13.7027 17.6889C9.6928 20.5979 11.7384 26.0196 12.8619 30.0772Z" fill="#1380B7"/>
<path fill-rule="evenodd" clip-rule="evenodd" d="M13.4204 14.7135C12.6185 15.5676 11.8747 16.3093 10.1676 17.0268C7.1878 18.3708 3.77969 17.2075 0.00759851 15.9719C-0.147702 15.921 2.12236 11.9947 2.71565 12.1888C5.9721 13.2557 10.5134 15.1245 13.5636 13.0589C13.5636 13.0589 14.6483 12.2731 15.5534 10.8809C14.8424 13.0428 14.1411 13.9384 13.4217 14.7135" fill="#B52B40"/>
<path fill-rule="evenodd" clip-rule="evenodd" d="M13.8427 15.3721C14.6459 14.5194 15.3872 13.7764 17.0955 13.0589C20.0753 11.7148 23.4834 12.8781 27.2555 14.1137C27.412 14.1646 25.1408 18.091 24.5487 17.8969C21.291 16.83 16.7509 14.9611 13.7007 17.0254C13.7007 17.0254 12.616 17.8125 11.7109 19.2048C12.4219 17.0428 13.1232 16.1472 13.8427 15.3721Z" fill="#B52B40"/>
<path d="M37.7417 30.3056C38.1668 30.3056 38.5919 30.2778 39.0169 30.2224C39.442 30.1485 39.8209 30.0283 40.1536 29.862C40.4863 29.6956 40.7543 29.4646 40.9576 29.1689C41.1794 28.8547 41.2903 28.4573 41.2903 27.9768C41.2903 27.6071 41.1886 27.2929 40.9853 27.0342C40.782 26.757 40.5233 26.5075 40.2091 26.2857C39.8949 26.0639 39.5437 25.8606 39.1556 25.6757C38.7674 25.4909 38.3793 25.2876 37.9912 25.0658C37.4922 24.7701 37.0209 24.4559 36.5773 24.1232C36.1337 23.7906 35.7548 23.4209 35.4406 23.0143C35.1264 22.5892 34.8769 22.1271 34.6921 21.6281C34.5073 21.1106 34.4149 20.5192 34.4149 19.8538C34.4149 19.0036 34.572 18.2181 34.8862 17.4973C35.2188 16.758 35.6994 16.1204 36.3278 15.5844C36.9747 15.0484 37.7786 14.6326 38.7397 14.3369C39.7008 14.0227 40.8282 13.8656 42.122 13.8656C42.7134 13.8656 43.2864 13.921 43.8408 14.0319C44.3953 14.1243 44.9128 14.2444 45.3933 14.3923C45.8739 14.5402 46.3082 14.7157 46.6963 14.9191C47.103 15.1039 47.4449 15.2887 47.7221 15.4735L45.9201 18.6617C45.458 18.3106 44.8943 18.0148 44.229 17.7746C43.5636 17.5343 42.8428 17.4142 42.0665 17.4142C41.6414 17.4142 41.2348 17.4511 40.8467 17.5251C40.4586 17.599 40.1166 17.7284 39.8209 17.9132C39.5252 18.0795 39.2849 18.3013 39.1001 18.5785C38.9338 18.8558 38.8506 19.1977 38.8506 19.6043C38.8506 19.974 38.9153 20.2882 39.0447 20.5469C39.1925 20.7872 39.3774 20.9997 39.5991 21.1846C39.8209 21.3694 40.0797 21.5357 40.3754 21.6836C40.6711 21.8314 40.9853 21.9885 41.318 22.1549C41.8909 22.4506 42.4454 22.7648 42.9814 23.0975C43.5174 23.4301 43.9887 23.8183 44.3953 24.2619C44.8019 24.6869 45.1253 25.1767 45.3656 25.7312C45.6059 26.2857 45.726 26.9418 45.726 27.6996C45.726 28.7531 45.532 29.6679 45.1438 30.4442C44.7557 31.2204 44.2105 31.8673 43.5081 32.3848C42.8058 32.9023 41.9649 33.2812 40.9853 33.5215C40.0242 33.7802 38.9523 33.9096 37.7694 33.9096C36.9931 33.9096 36.2631 33.8449 35.5792 33.7155C34.9139 33.5862 34.304 33.4383 33.7495 33.272C33.2135 33.0872 32.7422 32.8931 32.3356 32.6898C31.9475 32.4865 31.6333 32.3017 31.393 32.1353L33.2227 28.8362C33.4445 28.9841 33.7125 29.1412 34.0267 29.3075C34.3409 29.4739 34.6921 29.631 35.0802 29.7788C35.4868 29.9267 35.9119 30.0561 36.3555 30.1669C36.7991 30.2594 37.2611 30.3056 37.7417 30.3056ZM60.9962 27.2283C60.7375 28.2818 60.6635 29.3445 60.7744 30.4165C60.8853 31.4699 61.0979 32.4125 61.4121 33.2442L57.7249 33.771C57.614 33.5492 57.5123 33.3367 57.4199 33.1334C57.3275 32.9301 57.2351 32.699 57.1427 32.4403C56.6252 32.8654 56.0522 33.2165 55.4238 33.4938C54.7954 33.771 54.0931 33.9096 53.3168 33.9096C52.3927 33.9096 51.598 33.7525 50.9326 33.4383C50.2857 33.1056 49.7497 32.6713 49.3247 32.1353C48.918 31.5808 48.6223 30.9432 48.4375 30.2224C48.2527 29.4831 48.1603 28.6976 48.1603 27.8659C48.1603 26.5906 48.3821 25.3893 48.8256 24.2619C49.2877 23.1344 49.9161 22.1549 50.7108 21.3232C51.524 20.473 52.4759 19.8076 53.5663 19.3271C54.6568 18.8465 55.8397 18.6063 57.1149 18.6063C57.2813 18.6063 57.5678 18.6155 57.9744 18.634C58.3995 18.6525 58.88 18.6987 59.416 18.7726C59.952 18.8281 60.5157 18.9297 61.1071 19.0776C61.6986 19.2254 62.2623 19.4287 62.7982 19.6875L60.9962 27.2283ZM58.113 22.1271C57.8727 22.0902 57.6509 22.0625 57.4476 22.044C57.2628 22.0255 57.0318 22.0163 56.7545 22.0163C56.1261 22.0163 55.5347 22.1734 54.9802 22.4876C54.4443 22.8018 53.973 23.2176 53.5663 23.7351C53.1597 24.2341 52.8363 24.8163 52.596 25.4817C52.3742 26.147 52.2633 26.8401 52.2633 27.5609C52.2633 28.4481 52.4112 29.1504 52.7069 29.6679C53.0026 30.1854 53.5479 30.4442 54.3426 30.4442C54.7677 30.4442 55.1466 30.361 55.4793 30.1947C55.8304 30.0283 56.2001 29.7511 56.5882 29.363C56.6252 28.9009 56.6806 28.4204 56.7545 27.9213C56.8469 27.4038 56.9394 26.9325 57.0318 26.5075L58.113 22.1271ZM73.3301 18.6894C74.1249 18.6894 74.8087 18.8096 75.3817 19.0498C75.9546 19.2716 76.4259 19.5951 76.7956 20.0202C77.1652 20.4268 77.4424 20.9166 77.6273 21.4895C77.8121 22.0625 77.9045 22.6816 77.9045 23.347C77.9045 24.1232 77.8121 24.8903 77.6273 25.648L75.7421 33.5215H71.6113L73.441 25.8144C73.5149 25.5002 73.5796 25.1675 73.6351 24.8163C73.709 24.4652 73.746 24.1325 73.746 23.8183C73.746 23.3377 73.6166 22.9311 73.3578 22.5984C73.1176 22.2473 72.6463 22.0717 71.944 22.0717C71.6482 22.0717 71.3618 22.0902 71.0845 22.1271C70.8258 22.1641 70.567 22.2103 70.3083 22.2658L67.6191 33.5215H63.4883L68.4785 12.6735L72.7757 12.0081L71.0845 18.9667C71.4542 18.8927 71.8238 18.8281 72.1935 18.7726C72.5816 18.7172 72.9605 18.6894 73.3301 18.6894ZM94.3081 18.939C93.7906 20.3436 93.2639 21.6558 92.7279 22.8757C92.2104 24.0955 91.6651 25.2599 91.0922 26.3688C90.5192 27.4593 89.9278 28.5035 89.3179 29.5016C88.708 30.4996 88.0611 31.4884 87.3772 32.468C86.8782 33.1888 86.3607 33.9189 85.8247 34.6581C85.2887 35.3974 84.6881 36.0628 84.0227 36.6542C83.3758 37.2457 82.6458 37.7262 81.8326 38.0959C81.0378 38.4655 80.1137 38.6503 79.0602 38.6503C78.4133 38.6503 77.8589 38.5856 77.3968 38.4563C76.9348 38.3454 76.5004 38.1883 76.0938 37.985L77.3414 34.7413C77.711 34.8892 78.0437 35.0001 78.3394 35.074C78.6351 35.1664 78.9955 35.2126 79.4206 35.2126C80.0675 35.2126 80.6774 35.0001 81.2504 34.575C81.8418 34.1684 82.3316 33.6139 82.7197 32.9116C82.2392 31.0633 81.7956 28.9933 81.389 26.7015C81.0009 24.4097 80.7329 21.8222 80.585 18.939H84.8267C84.8452 19.6598 84.8821 20.4545 84.9376 21.3232C84.993 22.1918 85.0577 23.0697 85.1316 23.9569C85.2056 24.8256 85.2887 25.6757 85.3812 26.5075C85.4736 27.3392 85.5752 28.0877 85.6861 28.7531C86.5733 27.4223 87.3495 25.9437 88.0149 24.3173C88.6987 22.6909 89.3364 20.8981 89.9278 18.939H94.3081ZM107.012 27.2283C106.753 28.2818 106.679 29.3445 106.79 30.4165C106.901 31.4699 107.113 32.4125 107.428 33.2442L103.74 33.771C103.629 33.5492 103.528 33.3367 103.435 33.1334C103.343 32.9301 103.251 32.699 103.158 32.4403C102.641 32.8654 102.068 33.2165 101.439 33.4938C100.811 33.771 100.109 33.9096 99.3323 33.9096C98.4082 33.9096 97.6135 33.7525 96.9481 33.4383C96.3012 33.1056 95.7653 32.6713 95.3402 32.1353C94.9335 31.5808 94.6378 30.9432 94.453 30.2224C94.2682 29.4831 94.1758 28.6976 94.1758 27.8659C94.1758 26.5906 94.3976 25.3893 94.8411 24.2619C95.3032 23.1344 95.9316 22.1549 96.7263 21.3232C97.5396 20.473 98.4914 19.8076 99.5818 19.3271C100.672 18.8465 101.855 18.6063 103.13 18.6063C103.297 18.6063 103.583 18.6155 103.99 18.634C104.415 18.6525 104.896 18.6987 105.431 18.7726C105.967 18.8281 106.531 18.9297 107.123 19.0776C107.714 19.2254 108.278 19.4287 108.814 19.6875L107.012 27.2283ZM104.128 22.1271C103.888 22.0902 103.666 22.0625 103.463 22.044C103.278 22.0255 103.047 22.0163 102.77 22.0163C102.142 22.0163 101.55 22.1734 100.996 22.4876C100.46 22.8018 99.9885 23.2176 99.5818 23.7351C99.1752 24.2341 98.8518 24.8163 98.6115 25.4817C98.3897 26.147 98.2788 26.8401 98.2788 27.5609C98.2788 28.4481 98.4267 29.1504 98.7224 29.6679C99.0181 30.1854 99.5634 30.4442 100.358 30.4442C100.783 30.4442 101.162 30.361 101.495 30.1947C101.846 30.0283 102.216 29.7511 102.604 29.363C102.641 28.9009 102.696 28.4204 102.77 27.9213C102.862 27.4038 102.955 26.9325 103.047 26.5075L104.128 22.1271ZM115.52 33.9096C114.596 33.9096 113.801 33.7525 113.136 33.4383C112.489 33.1241 111.953 32.699 111.528 32.163C111.121 31.6086 110.816 30.9709 110.613 30.2501C110.428 29.5108 110.336 28.7253 110.336 27.8936C110.336 26.6368 110.557 25.454 111.001 24.345C111.463 23.2176 112.091 22.238 112.886 21.4063C113.681 20.5746 114.623 19.9185 115.714 19.438C116.804 18.9574 117.996 18.7172 119.29 18.7172C119.623 18.7172 119.928 18.7356 120.205 18.7726C120.501 18.8096 120.796 18.865 121.092 18.939L122.589 12.6735L126.886 12.0081L123.227 27.2283C122.968 28.2818 122.894 29.3445 123.005 30.4165C123.116 31.4699 123.329 32.4125 123.643 33.2442L119.956 33.771C119.845 33.5492 119.743 33.3367 119.651 33.1334C119.558 32.9301 119.466 32.699 119.373 32.4403C118.856 32.8654 118.274 33.2165 117.627 33.4938C116.998 33.771 116.296 33.9096 115.52 33.9096ZM120.288 22.238C120.177 22.2196 120.076 22.2011 119.983 22.1826C119.909 22.1641 119.826 22.1549 119.734 22.1549C119.66 22.1364 119.558 22.1271 119.429 22.1271C119.299 22.1271 119.133 22.1271 118.93 22.1271C118.283 22.1271 117.682 22.2842 117.128 22.5984C116.573 22.8942 116.093 23.3008 115.686 23.8183C115.298 24.3358 114.993 24.9272 114.771 25.5926C114.549 26.2395 114.439 26.9048 114.439 27.5887C114.439 28.4758 114.586 29.1781 114.882 29.6956C115.196 30.1947 115.751 30.4442 116.546 30.4442C116.971 30.4442 117.359 30.361 117.71 30.1947C118.061 30.0283 118.431 29.7511 118.819 29.363C118.856 28.9009 118.911 28.4204 118.985 27.9213C119.078 27.4038 119.17 26.9325 119.262 26.5075L120.288 22.238ZM136.863 22.4876C136.493 22.3951 136.123 22.312 135.754 22.238C135.402 22.1456 134.876 22.0994 134.173 22.0994C133.915 22.0994 133.628 22.1271 133.314 22.1826C133 22.2196 132.741 22.2658 132.538 22.3212L129.848 33.5215H125.718L129.045 19.7152C129.839 19.4565 130.726 19.2162 131.706 18.9944C132.704 18.7541 133.822 18.634 135.06 18.634C135.523 18.634 136.031 18.6802 136.585 18.7726C137.158 18.8465 137.657 18.9759 138.082 19.1607L136.863 22.4876ZM141.08 33.5215H136.977L140.443 18.939H144.573L141.08 33.5215ZM143.076 17.1647C142.503 17.1647 141.986 16.9983 141.524 16.6656C141.062 16.3145 140.831 15.7877 140.831 15.0854C140.831 14.6973 140.905 14.3369 141.052 14.0042C141.219 13.653 141.431 13.3573 141.69 13.117C141.949 12.8583 142.245 12.655 142.577 12.5071C142.928 12.3593 143.298 12.2853 143.686 12.2853C144.259 12.2853 144.777 12.4609 145.239 12.8121C145.701 13.1448 145.932 13.6623 145.932 14.3646C145.932 14.7527 145.849 15.1224 145.682 15.4735C145.534 15.8062 145.331 16.1019 145.072 16.3607C144.814 16.6009 144.509 16.795 144.157 16.9429C143.825 17.0907 143.464 17.1647 143.076 17.1647Z" fill="#B52B40"/>
<path d="M154.833 31.2592C154.833 32.8437 153.474 34.1437 151.779 34.1437C150.083 34.1437 148.724 32.8437 148.724 31.2592C148.724 29.6747 150.083 28.3748 151.779 28.3748C153.474 28.3748 154.833 29.6747 154.833 31.2592Z" stroke="black" stroke-width="0.339349"/>
<path d="M152.371 31.8214C152.422 31.885 152.486 31.9693 152.562 32.0743C152.642 32.1761 152.723 32.2906 152.806 32.4178C152.888 32.5419 152.969 32.6723 153.049 32.8091C153.132 32.9458 153.202 33.0778 153.259 33.2051H152.753C152.689 33.0842 152.619 32.9617 152.543 32.8377C152.47 32.7136 152.395 32.5959 152.319 32.4846C152.243 32.3701 152.166 32.2636 152.09 32.1649C152.017 32.0663 151.95 31.9805 151.889 31.9073C151.848 31.9105 151.805 31.9121 151.761 31.9121C151.719 31.9121 151.676 31.9121 151.632 31.9121H151.217V33.2051H150.754V29.9463C150.884 29.9145 151.029 29.8938 151.188 29.8843C151.35 29.8716 151.498 29.8652 151.632 29.8652C152.096 29.8652 152.449 29.9527 152.691 30.1276C152.936 30.3026 153.058 30.5634 153.058 30.9101C153.058 31.1296 153 31.3173 152.882 31.4731C152.767 31.629 152.597 31.7451 152.371 31.8214ZM151.67 30.2708C151.473 30.2708 151.322 30.2755 151.217 30.2851V31.5304H151.546C151.705 31.5304 151.848 31.5224 151.975 31.5065C152.103 31.4906 152.209 31.4604 152.295 31.4159C152.384 31.3713 152.452 31.3093 152.5 31.2298C152.548 31.1471 152.572 31.0389 152.572 30.9053C152.572 30.7813 152.548 30.6779 152.5 30.5952C152.452 30.5125 152.387 30.4473 152.305 30.3996C152.225 30.3519 152.13 30.3185 152.018 30.2994C151.91 30.2803 151.794 30.2708 151.67 30.2708Z" fill="black"/>
</svg>
