<svg width="34" height="34" viewBox="0 0 34 34" fill="none" xmlns="http://www.w3.org/2000/svg">
<g clip-path="url(#clip0_374_9)">
<path d="M7.03906 0H24.4375V0.0664062H24.7031V0.132812H24.9023V0.199219H25.0352V0.265625H25.168V0.332031H25.2344V0.398438H25.3672V0.464844H25.4336V0.53125H25.5V0.597656H25.5664V0.664062H25.6328V0.730469H25.6992V0.796875H25.7656V0.863281H25.832V0.996094H25.8984V1.0625H25.9648V1.19531H26.0312V1.32812H26.0977V1.52734H26.1641V1.79297H26.2305V12.3516H26.1641V12.5508H26.0977V12.6172H26.0312V12.6836H25.9648V12.75H25.8984V12.8164H25.6992V12.8828H25.3008V12.8164H25.168V12.75H25.0352V12.6836H24.9687V12.6172H24.9023V12.4844H24.8359V12.3516H24.7695V1.92578H24.7031V1.79297H24.6367V1.72656H24.5703V1.66016H24.5039V1.59375H24.4375V1.52734H24.3047V1.46094H20.0547V1.72656H19.9883V2.05859H19.9219V2.32422H19.8555V2.58984H19.7891V2.78906H19.7227V2.92188H19.6562V3.05469H19.5898V3.12109H19.5234V3.1875H19.457V3.25391H19.3906V3.32031H19.3242V3.38672H19.2578V3.45312H19.125V3.51953H18.9922V3.58594H18.793V3.65234H12.8828V3.58594H12.6836V3.51953H12.5508V3.45312H12.418V3.38672H12.3516V3.32031H12.2852V3.25391H12.2187V3.1875H12.1523V3.12109H12.0859V2.98828H12.0195V2.92188H11.9531V2.78906H11.8867V2.58984H11.8203V2.25781H11.7539V1.99219H11.6875V1.72656H11.6211V1.46094H7.17187V1.52734H7.03906V1.59375H6.97266V1.66016H6.90625V1.72656H6.83984V1.79297H6.77344V1.92578H6.70703V32.0742H6.77344V32.207H6.83984V32.2734H6.90625V32.3398H6.97266V32.4062H7.03906V32.4727H7.17187V32.5391H24.3047V32.4727H24.4375V32.4062H24.5039V32.3398H24.5703V32.2734H24.6367V32.207H24.7031V32.0742H24.7695V31.0781H24.8359V30.8789H24.9023V30.8125H24.9687V30.7461H25.0352V30.6797H25.1016V30.6133H25.2344V30.5469H25.832V30.6133H25.8984V30.6797H26.0312V30.8125H26.0977V30.8789H26.1641V31.0117H26.2305V32.207H26.1641V32.4727H26.0977V32.6719H26.0312V32.8047H25.9648V32.9375H25.8984V33.0039H25.832V33.1367H25.7656V33.2031H25.6992V33.2695H25.6328V33.3359H25.5664V33.4023H25.5V33.4688H25.4336V33.5352H25.3672V33.6016H25.2344V33.668H25.168V33.7344H25.0352V33.8008H24.9023V33.8672H24.7031V33.9336H24.4375V34H7.03906V33.9336H6.77344V33.8672H6.57422V33.8008H6.44141V33.7344H6.30859V33.668H6.17578V33.6016H6.10937V33.5352H6.04297V33.4688H5.97656V33.4023H5.91016V33.3359H5.84375V33.2695H5.77734V33.2031H5.71094V33.1367H5.64453V33.0703H5.57812V32.9375H5.51172V32.8047H5.44531V32.6719H5.37891V32.5391H5.3125V32.2734H5.24609V1.72656H5.3125V1.46094H5.37891V1.32812H5.44531V1.19531H5.51172V1.0625H5.57812V0.929688H5.64453V0.863281H5.71094V0.796875H5.77734V0.730469H5.84375V0.664062H5.91016V0.597656H5.97656V0.53125H6.04297V0.464844H6.10937V0.398438H6.17578V0.332031H6.30859V0.265625H6.44141V0.199219H6.57422V0.132812H6.77344V0.0664062H7.03906V0Z" fill="url(#paint0_linear_374_9)"/>
<path d="M22.4453 16.2031H22.9102V16.2695H23.043V16.3359H23.1094V16.4023H23.1758V16.4687H23.2422V16.5351H23.3086V16.6016H23.375V16.668H23.5078V16.7344H23.5742V16.8008H23.6406V16.8672H23.707V16.9336H23.7734V17H23.8398V17.0664H23.9062V17.1328H24.0391V17.1992H24.1055V17.2656H24.2383V17.332H24.3047V17.3984H24.4375V17.4648H24.5039V17.5312H24.6367V17.5976H24.7695V17.6641H24.8359V17.7305H24.9687V17.7969H25.168V17.8633H25.3008V17.9297H25.4336V17.9961H25.6328V18.0625H25.832V18.1289H26.0312V18.1953H26.2969V18.2617H26.5625V18.3281H26.9609V18.3945H27.8906V18.4609H28.2891V18.5273H28.4219V18.5937H28.4883V18.6601H28.5547V18.7266H28.6211V18.793H28.6875V18.9922H28.7539V21.1836H28.6875V21.7812H28.6211V22.2461H28.5547V22.6445H28.4883V22.9766H28.4219V23.2422H28.3555V23.5078H28.2891V23.7734H28.2227V23.9726H28.1562V24.1719H28.0898V24.3711H28.0234V24.5703H27.957V24.7695H27.8906V24.9687H27.8242V25.1015H27.7578V25.2344H27.6914V25.4336H27.625V25.5664H27.5586V25.6992H27.4922V25.832H27.4258V25.9648H27.3594V26.0976H27.293V26.2305H27.2266V26.3633H27.1602V26.4297H27.0937V26.5625H27.0273V26.6953H26.9609V26.7617H26.8945V26.8945H26.8281V27.0273H26.7617V27.0937H26.6953V27.2265H26.6289V27.293H26.5625V27.3594H26.4961V27.4922H26.4297V27.5586H26.3633V27.6914H26.2969V27.7578H26.2305V27.8242H26.1641V27.8906H26.0977V28.0234H26.0312V28.0898H25.9648V28.1562H25.8984V28.2226H25.832V28.289H25.7656V28.3555H25.6992V28.4883H25.6328V28.5547H25.5664V28.6211H25.5V28.6875H25.4336V28.7539H25.3672V28.8203H25.3008V28.8867H25.2344V28.9531H25.168V29.0195H25.1016V29.0859H25.0352V29.1523H24.9687V29.2187H24.9023V29.2851H24.8359V29.3515H24.7031V29.418H24.6367V29.4844H24.5703V29.5508H24.5039V29.6172H24.4375V29.6836H24.3047V29.75H24.2383V29.8164H24.1719V29.8828H24.1055V29.9492H23.9727V30.0156H23.9062V30.082H23.8398V30.1484H23.707V30.2148H23.6406V30.2812H23.5078V30.3476H23.4414V30.414H23.3086V30.4805H23.2422V30.5469H23.1094V30.6133H22.9766V30.6797H22.7773V30.7461H22.5117V30.6797H22.3125V30.6133H22.2461V30.5469H22.1133V30.4805H21.9805V30.414H21.9141V30.3476H21.7812V30.2812H21.7148V30.2148H21.582V30.1484H21.5156V30.082H21.4492V30.0156H21.3164V29.9492H21.25V29.8828H21.1836V29.8164H21.0508V29.75H20.9844V29.6836H20.918V29.6172H20.8516V29.5508H20.7187V29.4844H20.6523V29.418H20.5859V29.3515H20.5195V29.2851H20.4531V29.2187H20.3867V29.1523H20.3203V29.0859H20.2539V29.0195H20.1875V28.9531H20.1211V28.8867H20.0547V28.8203H19.9883V28.7539H19.9219V28.6875H19.8555V28.6211H19.7891V28.5547H19.7227V28.4883H19.6562V28.4219H19.5898V28.3555H19.5234V28.289H19.457V28.2226H19.3906V28.0898H19.3242V28.0234H19.2578V27.957H19.1914V27.8906H19.125V27.7578H19.0586V27.6914H18.9922V27.625H18.9258V27.4922H18.8594V27.4258H18.793V27.3594H18.7266V27.2265H18.6602V27.1601H18.5937V27.0273H18.5273V26.9609H18.4609V26.8281H18.3945V26.7617H18.3281V26.6289H18.2617V26.4961H18.1953V26.3633H18.1289V26.2969H18.0625V26.164H17.9961V26.0312H17.9297V25.8984H17.8633V25.7656H17.7969V25.6328H17.7305V25.5H17.6641V25.3008H17.5977V25.168H17.5312V25.0351H17.4648V24.8359H17.3984V24.6367H17.332V24.5039H17.2656V24.3047H17.1992V24.1055H17.1328V23.8398H17.0664V23.6406H17V23.375H16.9336V23.1094H16.8672V22.7773H16.8008V22.4453H16.7344V22.0469H16.668V21.4492H16.6016V20.5195H16.5352V19.5234H16.6016V18.9258H16.668V18.793H16.7344V18.6601H16.8008V18.5937H16.9336V18.5273H17V18.4609H17.4648V18.3945H18.3281V18.3281H18.7266V18.2617H19.0586V18.1953H19.3242V18.1289H19.5234V18.0625H19.7227V17.9961H19.9219V17.9297H20.0547V17.8633H20.1875V17.7969H20.3203V17.7305H20.4531V17.6641H20.5859V17.5976H20.7187V17.5312H20.7852V17.4648H20.918V17.3984H21.0508V17.332H21.1172V17.2656H21.1836V17.1992H21.3164V17.1328H21.3828V17.0664H21.4492V17H21.582V16.9336H21.6484V16.8672H21.7148V16.8008H21.7812V16.7344H21.8477V16.668H21.9141V16.6016H21.9805V16.5351H22.0469V16.4687H22.1133V16.4023H22.1797V16.3359H22.3125V16.2695H22.4453V16.2031ZM24.7695 20.5859V20.6523H24.6367V20.7187H24.5039V20.8516H24.4375V20.918H24.3711V20.9844H24.3047V21.0508H24.2383V21.1836H24.1719V21.25H24.1055V21.3828H24.0391V21.4492H23.9727V21.5156H23.9062V21.6484H23.8398V21.7148H23.7734V21.7812H23.707V21.9141H23.6406V21.9805H23.5742V22.0469H23.5078V22.1797H23.4414V22.2461H23.375V22.3125H23.3086V22.4453H23.2422V22.5117H23.1758V22.5781H23.1094V22.7109H23.043V22.7773H22.9766V22.8437H22.9102V22.9766H22.8437V23.043H22.7773V23.1094H22.7109V23.2422H22.6445V23.3086H22.5781V23.4414H22.5117V23.5078H22.4453V23.5742H22.3789V23.707H22.3125V23.7734H22.1797V23.707H22.1133V23.6406H22.0469V23.5742H21.9805V23.5078H21.9141V23.4414H21.8477V23.375H21.7812V23.3086H21.7148V23.2422H21.6484V23.1758H21.582V23.1094H21.5156V23.043H21.4492V22.9766H21.3828V22.9101H21.3164V22.8437H21.25V22.7773H21.1172V22.7109H20.9844V22.6445H20.5195V22.7109H20.3867V22.7773H20.3203V22.8437H20.2539V22.9101H20.1875V22.9766H20.1211V23.1094H20.0547V23.6406H20.1211V23.7734H20.1875V23.8398H20.2539V23.9062H20.3203V23.9726H20.3867V24.039H20.4531V24.1055H20.5195V24.1719H20.5859V24.2383H20.6523V24.3047H20.7187V24.3711H20.7852V24.4375H20.8516V24.5039H20.918V24.5703H20.9844V24.6367H21.0508V24.7031H21.1172V24.7695H21.1836V24.8359H21.25V24.9023H21.3164V24.9687H21.3828V25.0351H21.4492V25.1015H21.5156V25.168H21.582V25.2344H21.6484V25.3008H21.7148V25.3672H21.7812V25.4336H21.8477V25.5H21.9805V25.5664H22.1133V25.6328H22.5781V25.5664H22.7109V25.5H22.7773V25.4336H22.8437V25.3672H22.9102V25.3008H22.9766V25.2344H23.043V25.1015H23.1094V25.0351H23.1758V24.9687H23.2422V24.8359H23.3086V24.7695H23.375V24.7031H23.4414V24.5703H23.5078V24.5039H23.5742V24.4375H23.6406V24.3047H23.707V24.2383H23.7734V24.1719H23.8398V24.039H23.9062V23.9726H23.9727V23.9062H24.0391V23.7734H24.1055V23.707H24.1719V23.6406H24.2383V23.5078H24.3047V23.4414H24.3711V23.375H24.4375V23.2422H24.5039V23.1758H24.5703V23.043H24.6367V22.9766H24.7031V22.9101H24.7695V22.7773H24.8359V22.7109H24.9023V22.6445H24.9687V22.5117H25.0352V22.4453H25.1016V22.3789H25.168V22.2461H25.2344V22.1797H25.3008V22.1133H25.3672V21.9805H25.4336V21.9141H25.5V21.8476H25.5664V21.7148H25.6328V21.6484H25.6992V21.4492H25.7656V21.1172H25.6992V20.918H25.6328V20.8516H25.5664V20.7851H25.5V20.7187H25.4336V20.6523H25.3008V20.5859H24.7695Z" fill="url(#paint1_linear_374_9)"/>
<path d="M11.0234 6.44141H11.4883V6.50781H11.8867V6.57422H12.0859V6.64062H12.2187V6.70703H12.3516V6.77344H12.4844V6.83984H12.5508V6.90625H12.6172V6.97266H12.6836V7.03906H12.75V7.10547H12.8164V7.17187H12.8828V7.30469H12.9492V7.4375H13.0156V7.57031H13.082V7.76953H13.1484V8.03516H13.2148V9.23047H13.1484V9.49609H13.082V9.69531H13.0156V9.82812H12.9492V9.96094H12.8828V10.0937H12.8164V10.1602H12.75V10.2266H12.6836V10.293H12.6172V10.3594H12.5508V10.4258H12.4844V10.4922H12.418V10.5586H12.2852V10.625H12.1523V10.6914H11.9531V10.7578H11.6875V10.8242H10.7578V10.7578H10.4922V10.6914H10.293V10.625H10.1602V10.5586H10.0273V10.4922H9.96094V10.4258H9.89453V10.3594H9.82812V10.293H9.76172V10.2266H9.69531V10.1602H9.62891V10.0937H9.5625V9.96094H9.49609V9.89453H9.42969V9.69531H9.36328V9.49609H9.29687V9.23047H9.23047V8.03516H9.29687V7.76953H9.36328V7.57031H9.42969V7.4375H9.49609V7.30469H9.5625V7.17187H9.62891V7.10547H9.69531V7.03906H9.76172V6.97266H9.82812V6.90625H9.89453V6.83984H9.96094V6.77344H10.0937V6.70703H10.2266V6.64062H10.3594V6.57422H10.5586V6.50781H11.0234V6.44141ZM10.8242 7.23828V7.30469H10.6914V7.37109H10.5586V7.4375H10.4922V7.50391H10.4258V7.63672H10.3594V7.70312H10.293V7.90234H10.2266V8.16797H10.1602V9.09766H10.2266V9.42969H10.293V9.5625H10.3594V9.69531H10.4258V9.76172H10.4922V9.82812H10.5586V9.89453H10.625V9.96094H10.8242V10.0273H11.0898V10.0937H11.4219V10.0273H11.6875V9.96094H11.8203V9.89453H11.8867V9.82812H11.9531V9.76172H12.0195V9.69531H12.0859V9.5625H12.1523V9.42969H12.2187V9.16406H12.2852V8.16797H12.2187V7.90234H12.1523V7.70312H12.0859V7.63672H12.0195V7.50391H11.9531V7.4375H11.8867V7.37109H11.7539V7.30469H11.6211V7.23828H10.8242Z" fill="url(#paint2_linear_374_9)"/>
<path d="M17.8633 6.50782H19.5234V6.57422H19.7891V6.64063H19.9883V6.70704H20.1211V6.77344H20.2539V6.83985H20.3203V6.90625H20.3867V6.97266H20.4531V7.03907H20.5195V7.10547H20.5859V7.23829H20.6523V7.3711H20.7187V7.70313H20.7852V7.96875H20.7187V8.30079H20.6523V8.5H20.5859V8.56641H20.5195V8.69922H20.4531V8.76563H20.3867V8.83204H20.3203V8.89844H20.1875V8.96485H20.1211V9.03125H19.9883V9.09766H19.8555V9.16407H19.6562V9.23047H19.2578V9.29688H18.7266V10.7578H17.8633V6.50782ZM18.793 7.23829V7.30469H18.7266V8.5H19.3906V8.4336H19.5234V8.36719H19.5898V8.30079H19.6562V8.23438H19.7227V8.10157H19.7891V7.96875H19.8555V7.70313H19.7891V7.57032H19.7227V7.4375H19.5898V7.3711H19.5234V7.30469H19.1914V7.23829H18.793Z" fill="url(#paint3_linear_374_9)"/>
<path d="M13.8789 6.50782H17V6.57422H17.0664V7.23829H17V7.30469H15.8711V10.7578H15.0078V7.30469H13.8789V6.50782Z" fill="url(#paint4_linear_374_9)"/>
<path d="M14.4766 13.6797H17V13.7461H17.1328V13.8125H17.2656V13.8789H17.332V13.9453H17.3984V14.0781H17.4648V14.2774H17.5312V14.543H17.4648V14.7422H17.3984V14.8086H17.332V14.9414H17.2656V15.0078H17.1328V15.0742H16.9336V15.1406H14.4766V15.0742H14.3437V15.0078H14.2109V14.9414H14.1445V14.875H14.0781V14.7422H14.0117V14.543H13.9453V14.2109H14.0117V14.0781H14.0781V13.9453H14.1445V13.8789H14.2109V13.8125H14.3437V13.7461H14.4766V13.6797Z" fill="url(#paint5_linear_374_9)"/>
<path d="M19.7891 13.6797H22.3125V13.7461H22.4453V13.8125H22.5781V13.8789H22.6445V14.0117H22.7109V14.0781H22.7773V14.6758H22.7109V14.8086H22.6445V14.875H22.5781V14.9414H22.5117V15.0078H22.4453V15.0742H22.2461V15.1406H19.7891V15.0742H19.6562V15.0078H19.5234V14.9414H19.457V14.875H19.3906V14.7422H19.3242V14.6094H19.2578V14.2109H19.3242V14.0117H19.3906V13.9453H19.457V13.8789H19.5234V13.8125H19.5898V13.7461H19.7891V13.6797Z" fill="url(#paint6_linear_374_9)"/>
<path d="M9.29687 13.6797H11.8203V13.7461H11.9531V13.8125H12.0195V13.8789H12.0859V13.9453H12.1523V14.0117H12.2187V14.1445H12.2852V14.6758H12.2187V14.8086H12.1523V14.875H12.0859V14.9414H12.0195V15.0078H11.9531V15.0742H11.7539V15.1406H9.29687V15.0742H9.16406V15.0078H9.03125V14.9414H8.96484V14.875H8.89844V14.8086H8.83203V14.6094H8.76562V14.1445H8.83203V14.0117H8.89844V13.9453H8.96484V13.8789H9.03125V13.8125H9.09766V13.7461H9.29687V13.6797Z" fill="url(#paint7_linear_374_9)"/>
<path d="M6.64062 2.125H6.70703V31.875H6.64062V2.125Z" fill="url(#paint8_linear_374_9)"/>
<path d="M25.4336 14.4766H25.5664V14.543H25.832V14.6094H25.9648V14.6758H26.0312V14.7422H26.0977V14.8086H26.1641V14.9414H26.2305V15.0742H26.2969V15.5391H26.2305V15.6719H26.1641V15.8047H26.0977V15.8711H26.0312V15.9375H25.8984V16.0039H25.7656V16.0703H25.2344V16.0039H25.1016V15.9375H25.0352V15.8711H24.9687V15.8047H24.9023V15.7383H24.8359V15.6719H24.7695V15.4726H24.7031V15.1406H24.7695V14.9414H24.8359V14.8086H24.9023V14.7422H24.9687V14.6758H25.0352V14.6094H25.168V14.543H25.4336V14.4766Z" fill="url(#paint9_linear_374_9)"/>
<path d="M7.37109 32.5391H24.1055V32.6055H7.37109V32.5391Z" fill="url(#paint10_linear_374_9)"/>
<path d="M24.7695 2.125H24.8359V12.3516H24.7695V2.125Z" fill="url(#paint11_linear_374_9)"/>
<path d="M7.37109 1.39454H11.6211V1.46094H7.37109V1.39454Z" fill="url(#paint12_linear_374_9)"/>
<path d="M20.1211 1.39454H24.1055V1.46094H20.1211V1.39454Z" fill="url(#paint13_linear_374_9)"/>
<path d="M13.8789 6.50782H17V6.57422H13.8789V6.50782Z" fill="url(#paint14_linear_374_9)"/>
<path d="M19.7891 15.0742H22.2461V15.1406H19.7891V15.0742Z" fill="url(#paint15_linear_374_9)"/>
<path d="M14.4766 15.0742H16.9336V15.1406H14.4766V15.0742Z" fill="url(#paint16_linear_374_9)"/>
<path d="M9.29688 15.0742H11.7539V15.1406H9.29688V15.0742Z" fill="url(#paint17_linear_374_9)"/>
<path d="M15.8711 7.23829H17V7.3047H15.8711V7.23829Z" fill="url(#paint18_linear_374_9)"/>
<path d="M13.8789 7.23829H15.0078V7.3047H13.8789V7.23829Z" fill="url(#paint19_linear_374_9)"/>
<path d="M16.5352 19.5234H16.6016V20.5195H16.5352V19.5234Z" fill="url(#paint20_linear_374_9)"/>
<path d="M24.7695 31.0781H24.8359V31.875H24.7695V31.0781Z" fill="url(#paint21_linear_374_9)"/>
<path d="M17 6.57422H17.0664V7.23828H17V6.57422Z" fill="url(#paint22_linear_374_9)"/>
<path d="M18.7266 9.23047H19.2578V9.29688H18.7266V9.23047Z" fill="url(#paint23_linear_374_9)"/>
<path d="M11.0234 6.44141H11.4883V6.50781H11.0234V6.44141Z" fill="url(#paint24_linear_374_9)"/>
<path d="M27.4922 18.3945H27.8906V18.4609H27.4922V18.3945Z" fill="url(#paint25_linear_374_9)"/>
<path d="M17.4648 18.3945H17.8633V18.4609H17.4648V18.3945Z" fill="url(#paint26_linear_374_9)"/>
<path d="M18.7266 8.5H19.125V8.56641H18.7266V8.5Z" fill="url(#paint27_linear_374_9)"/>
<path d="M28.6875 18.9922H28.7539V19.3242H28.6875V18.9922Z" fill="url(#paint28_linear_374_9)"/>
<path d="M13.9453 14.2109H14.0117V14.543H13.9453V14.2109Z" fill="url(#paint29_linear_374_9)"/>
<path d="M11.0898 7.17188H11.4219V7.23829H11.0898V7.17188Z" fill="url(#paint30_linear_374_9)"/>
<path d="M7.03906 33.9336H7.30469V34H7.03906V33.9336Z" fill="url(#paint31_linear_374_9)"/>
<path d="M22.5117 30.6797H22.7773V30.7461H22.5117V30.6797Z" fill="url(#paint32_linear_374_9)"/>
<path d="M28.6875 20.918H28.7539V21.1836H28.6875V20.918Z" fill="url(#paint33_linear_374_9)"/>
<path d="M17.4648 14.2773H17.5312V14.543H17.4648V14.2773Z" fill="url(#paint34_linear_374_9)"/>
<path d="M20.7188 7.70313H20.7852V7.96875H20.7188V7.70313Z" fill="url(#paint35_linear_374_9)"/>
<path d="M7.03906 0H7.30469V0.0664062H7.03906V0Z" fill="url(#paint36_linear_374_9)"/>
<path d="M28.6875 20.7187H28.7539V20.918H28.6875V20.7187Z" fill="url(#paint37_linear_374_9)"/>
<path d="M24.9023 20.5195H25.1016V20.5859H24.9023V20.5195Z" fill="url(#paint38_linear_374_9)"/>
<path d="M22.7109 16.2031H22.9102V16.2695H22.7109V16.2031Z" fill="url(#paint39_linear_374_9)"/>
<path d="M22.1133 13.6797H22.3125V13.7461H22.1133V13.6797Z" fill="url(#paint40_linear_374_9)"/>
<path d="M11.6211 13.6797H11.8203V13.7461H11.6211V13.6797Z" fill="url(#paint41_linear_374_9)"/>
<path d="M25.3008 12.8164H25.5V12.8828H25.3008V12.8164Z" fill="url(#paint42_linear_374_9)"/>
<path d="M11.4883 10.7578H11.6875V10.8242H11.4883V10.7578Z" fill="url(#paint43_linear_374_9)"/>
<path d="M10.7578 10.7578H10.957V10.8242H10.7578V10.7578Z" fill="url(#paint44_linear_374_9)"/>
<path d="M13.1484 9.03125H13.2148V9.23047H13.1484V9.03125Z" fill="url(#paint45_linear_374_9)"/>
<path d="M9.23047 9.03125H9.29687V9.23047H9.23047V9.03125Z" fill="url(#paint46_linear_374_9)"/>
<path d="M17.8633 6.50782H18.0625V6.57422H17.8633V6.50782Z" fill="url(#paint47_linear_374_9)"/>
<path d="M24.3047 33.9336H24.4375V34H24.3047V33.9336Z" fill="url(#paint48_linear_374_9)"/>
<path d="M24.1719 33.9336H24.3047V34H24.1719V33.9336Z" fill="url(#paint49_linear_374_9)"/>
<path d="M7.03906 33.9336H7.17187V34H7.03906V33.9336Z" fill="url(#paint50_linear_374_9)"/>
<path d="M5.24609 32.1406H5.3125V32.2735H5.24609V32.1406Z" fill="url(#paint51_linear_374_9)"/>
<path d="M26.1641 32.0742H26.2305V32.207H26.1641V32.0742Z" fill="url(#paint52_linear_374_9)"/>
<path d="M26.1641 31.0117H26.2305V31.1445H26.1641V31.0117Z" fill="url(#paint53_linear_374_9)"/>
<path d="M24.7695 31.0781H24.8359V31.2109H24.7695V31.0781Z" fill="url(#paint54_linear_374_9)"/>
<path d="M19.9883 23.3086H20.0547V23.4414H19.9883V23.3086Z" fill="url(#paint55_linear_374_9)"/>
<path d="M28.4883 22.5117H28.5547V22.6445H28.4883V22.5117Z" fill="url(#paint56_linear_374_9)"/>
<path d="M16.7344 22.3125H16.8008V22.4453H16.7344V22.3125Z" fill="url(#paint57_linear_374_9)"/>
<path d="M28.5547 22.1133H28.6211V22.2461H28.5547V22.1133Z" fill="url(#paint58_linear_374_9)"/>
<path d="M16.668 21.9141H16.7344V22.0469H16.668V21.9141Z" fill="url(#paint59_linear_374_9)"/>
<path d="M28.6211 21.6484H28.6875V21.7813H28.6211V21.6484Z" fill="url(#paint60_linear_374_9)"/>
<path d="M16.6016 21.3164H16.668V21.4492H16.6016V21.3164Z" fill="url(#paint61_linear_374_9)"/>
<path d="M16.6016 21.1836H16.668V21.3164H16.6016V21.1836Z" fill="url(#paint62_linear_374_9)"/>
<path d="M28.6875 18.9922H28.7539V19.125H28.6875V18.9922Z" fill="url(#paint63_linear_374_9)"/>
<path d="M17 18.4609H17.1328V18.5273H17V18.4609Z" fill="url(#paint64_linear_374_9)"/>
<path d="M27.3594 18.3945H27.4922V18.4609H27.3594V18.3945Z" fill="url(#paint65_linear_374_9)"/>
<path d="M17.8633 18.3945H17.9961V18.4609H17.8633V18.3945Z" fill="url(#paint66_linear_374_9)"/>
<path d="M18.3281 18.3281H18.4609V18.3945H18.3281V18.3281Z" fill="url(#paint67_linear_374_9)"/>
<path d="M18.7266 18.2617H18.8594V18.3281H18.7266V18.2617Z" fill="url(#paint68_linear_374_9)"/>
<path d="M22.4453 16.2031H22.5781V16.2695H22.4453V16.2031Z" fill="url(#paint69_linear_374_9)"/>
<path d="M25.2344 16.0039H25.3672V16.0703H25.2344V16.0039Z" fill="url(#paint70_linear_374_9)"/>
<path d="M24.7031 15.3398H24.7695V15.4726H24.7031V15.3398Z" fill="url(#paint71_linear_374_9)"/>
<path d="M26.2305 15.0742H26.2969V15.207H26.2305V15.0742Z" fill="url(#paint72_linear_374_9)"/>
<path d="M24.7031 15.1406H24.7695V15.2734H24.7031V15.1406Z" fill="url(#paint73_linear_374_9)"/>
<path d="M19.7891 15.0742H19.9219V15.1406H19.7891V15.0742Z" fill="url(#paint74_linear_374_9)"/>
<path d="M14.4766 15.0742H14.6094V15.1406H14.4766V15.0742Z" fill="url(#paint75_linear_374_9)"/>
<path d="M11.6211 15.0742H11.7539V15.1406H11.6211V15.0742Z" fill="url(#paint76_linear_374_9)"/>
<path d="M9.29688 15.0742H9.42969V15.1406H9.29688V15.0742Z" fill="url(#paint77_linear_374_9)"/>
<path d="M25.4336 14.4766H25.5664V14.543H25.4336V14.4766Z" fill="url(#paint78_linear_374_9)"/>
<path d="M19.2578 14.2109H19.3242V14.3438H19.2578V14.2109Z" fill="url(#paint79_linear_374_9)"/>
<path d="M13.9453 14.2109H14.0117V14.3438H13.9453V14.2109Z" fill="url(#paint80_linear_374_9)"/>
<path d="M8.76562 14.1445H8.83203V14.2774H8.76562V14.1445Z" fill="url(#paint81_linear_374_9)"/>
<path d="M22.7109 14.0781H22.7773V14.2109H22.7109V14.0781Z" fill="url(#paint82_linear_374_9)"/>
<path d="M19.7891 13.6797H19.9219V13.7461H19.7891V13.6797Z" fill="url(#paint83_linear_374_9)"/>
<path d="M14.4766 13.6797H14.6094V13.7461H14.4766V13.6797Z" fill="url(#paint84_linear_374_9)"/>
<path d="M9.29688 13.6797H9.42969V13.7461H9.29688V13.6797Z" fill="url(#paint85_linear_374_9)"/>
<path d="M24.7695 12.2188H24.8359V12.3516H24.7695V12.2188Z" fill="url(#paint86_linear_374_9)"/>
<path d="M11.3555 10.7578H11.4883V10.8242H11.3555V10.7578Z" fill="url(#paint87_linear_374_9)"/>
<path d="M10.4922 10.6914H10.625V10.7578H10.4922V10.6914Z" fill="url(#paint88_linear_374_9)"/>
<path d="M11.4219 10.0273H11.5547V10.0938H11.4219V10.0273Z" fill="url(#paint89_linear_374_9)"/>
<path d="M10.957 10.0273H11.0898V10.0938H10.957V10.0273Z" fill="url(#paint90_linear_374_9)"/>
<path d="M12.2188 9.16406H12.2852V9.29688H12.2188V9.16406Z" fill="url(#paint91_linear_374_9)"/>
<path d="M10.1602 9.09766H10.2266V9.23047H10.1602V9.09766Z" fill="url(#paint92_linear_374_9)"/>
<path d="M12.2852 8.56641H12.3516V8.69922H12.2852V8.56641Z" fill="url(#paint93_linear_374_9)"/>
<path d="M10.0938 8.56641H10.1602V8.69922H10.0938V8.56641Z" fill="url(#paint94_linear_374_9)"/>
<path d="M13.1484 8.03516H13.2148V8.16797H13.1484V8.03516Z" fill="url(#paint95_linear_374_9)"/>
<path d="M12.2188 8.03516H12.2852V8.16797H12.2188V8.03516Z" fill="url(#paint96_linear_374_9)"/>
<path d="M10.1602 8.03516H10.2266V8.16797H10.1602V8.03516Z" fill="url(#paint97_linear_374_9)"/>
<path d="M9.23047 8.03516H9.29687V8.16797H9.23047V8.03516Z" fill="url(#paint98_linear_374_9)"/>
<path d="M20.6523 7.3711H20.7187V7.50391H20.6523V7.3711Z" fill="url(#paint99_linear_374_9)"/>
<path d="M19.1914 7.23829H19.3242V7.3047H19.1914V7.23829Z" fill="url(#paint100_linear_374_9)"/>
<path d="M19.3906 6.50782H19.5234V6.57422H19.3906V6.50782Z" fill="url(#paint101_linear_374_9)"/>
<path d="M10.5586 6.50782H10.6914V6.57422H10.5586V6.50782Z" fill="url(#paint102_linear_374_9)"/>
<path d="M12.8828 3.58594H13.0156V3.65235H12.8828V3.58594Z" fill="url(#paint103_linear_374_9)"/>
<path d="M11.8203 2.45704H11.8867V2.58985H11.8203V2.45704Z" fill="url(#paint104_linear_374_9)"/>
<path d="M26.1641 1.79297H26.2305V1.92579H26.1641V1.79297Z" fill="url(#paint105_linear_374_9)"/>
<path d="M5.24609 1.72656H5.3125V1.85938H5.24609V1.72656Z" fill="url(#paint106_linear_374_9)"/>
<path d="M11.6211 1.59375H11.6875V1.72657H11.6211V1.59375Z" fill="url(#paint107_linear_374_9)"/>
<path d="M5.3125 1.46094H5.37891V1.59375H5.3125V1.46094Z" fill="url(#paint108_linear_374_9)"/>
<path d="M24.3047 0H24.4375V0.0664062H24.3047V0Z" fill="url(#paint109_linear_374_9)"/>
<path d="M24.1719 0H24.3047V0.0664062H24.1719V0Z" fill="url(#paint110_linear_374_9)"/>
<path d="M7.03906 0H7.17187V0.0664062H7.03906V0Z" fill="url(#paint111_linear_374_9)"/>
</g>
<defs>
<linearGradient id="paint0_linear_374_9" x1="15.7383" y1="0" x2="15.7383" y2="34" gradientUnits="userSpaceOnUse">
<stop stop-color="#149FE6"/>
<stop offset="1" stop-color="#D22936"/>
</linearGradient>
<linearGradient id="paint1_linear_374_9" x1="22.6445" y1="16.2031" x2="22.6445" y2="30.7461" gradientUnits="userSpaceOnUse">
<stop stop-color="#149FE6"/>
<stop offset="1" stop-color="#D22936"/>
</linearGradient>
<linearGradient id="paint2_linear_374_9" x1="11.2227" y1="6.44141" x2="11.2227" y2="10.8242" gradientUnits="userSpaceOnUse">
<stop stop-color="#149FE6"/>
<stop offset="1" stop-color="#D22936"/>
</linearGradient>
<linearGradient id="paint3_linear_374_9" x1="19.3242" y1="6.50782" x2="19.3242" y2="10.7578" gradientUnits="userSpaceOnUse">
<stop stop-color="#149FE6"/>
<stop offset="1" stop-color="#D22936"/>
</linearGradient>
<linearGradient id="paint4_linear_374_9" x1="15.4727" y1="6.50782" x2="15.4727" y2="10.7578" gradientUnits="userSpaceOnUse">
<stop stop-color="#149FE6"/>
<stop offset="1" stop-color="#D22936"/>
</linearGradient>
<linearGradient id="paint5_linear_374_9" x1="15.7383" y1="13.6797" x2="15.7383" y2="15.1406" gradientUnits="userSpaceOnUse">
<stop stop-color="#149FE6"/>
<stop offset="1" stop-color="#D22936"/>
</linearGradient>
<linearGradient id="paint6_linear_374_9" x1="21.0176" y1="13.6797" x2="21.0176" y2="15.1406" gradientUnits="userSpaceOnUse">
<stop stop-color="#149FE6"/>
<stop offset="1" stop-color="#D22936"/>
</linearGradient>
<linearGradient id="paint7_linear_374_9" x1="10.5254" y1="13.6797" x2="10.5254" y2="15.1406" gradientUnits="userSpaceOnUse">
<stop stop-color="#149FE6"/>
<stop offset="1" stop-color="#D22936"/>
</linearGradient>
<linearGradient id="paint8_linear_374_9" x1="6.67383" y1="2.125" x2="6.67383" y2="31.875" gradientUnits="userSpaceOnUse">
<stop stop-color="#149FE6"/>
<stop offset="1" stop-color="#D22936"/>
</linearGradient>
<linearGradient id="paint9_linear_374_9" x1="25.5" y1="14.4766" x2="25.5" y2="16.0703" gradientUnits="userSpaceOnUse">
<stop stop-color="#149FE6"/>
<stop offset="1" stop-color="#D22936"/>
</linearGradient>
<linearGradient id="paint10_linear_374_9" x1="15.7383" y1="32.5391" x2="15.7383" y2="32.6055" gradientUnits="userSpaceOnUse">
<stop stop-color="#149FE6"/>
<stop offset="1" stop-color="#D22936"/>
</linearGradient>
<linearGradient id="paint11_linear_374_9" x1="24.8027" y1="2.125" x2="24.8027" y2="12.3516" gradientUnits="userSpaceOnUse">
<stop stop-color="#149FE6"/>
<stop offset="1" stop-color="#D22936"/>
</linearGradient>
<linearGradient id="paint12_linear_374_9" x1="9.49609" y1="1.39454" x2="9.49609" y2="1.46094" gradientUnits="userSpaceOnUse">
<stop stop-color="#149FE6"/>
<stop offset="1" stop-color="#D22936"/>
</linearGradient>
<linearGradient id="paint13_linear_374_9" x1="22.1133" y1="1.39454" x2="22.1133" y2="1.46094" gradientUnits="userSpaceOnUse">
<stop stop-color="#149FE6"/>
<stop offset="1" stop-color="#D22936"/>
</linearGradient>
<linearGradient id="paint14_linear_374_9" x1="15.4395" y1="6.50782" x2="15.4395" y2="6.57422" gradientUnits="userSpaceOnUse">
<stop stop-color="#149FE6"/>
<stop offset="1" stop-color="#D22936"/>
</linearGradient>
<linearGradient id="paint15_linear_374_9" x1="21.0176" y1="15.0742" x2="21.0176" y2="15.1406" gradientUnits="userSpaceOnUse">
<stop stop-color="#149FE6"/>
<stop offset="1" stop-color="#D22936"/>
</linearGradient>
<linearGradient id="paint16_linear_374_9" x1="15.7051" y1="15.0742" x2="15.7051" y2="15.1406" gradientUnits="userSpaceOnUse">
<stop stop-color="#149FE6"/>
<stop offset="1" stop-color="#D22936"/>
</linearGradient>
<linearGradient id="paint17_linear_374_9" x1="10.5254" y1="15.0742" x2="10.5254" y2="15.1406" gradientUnits="userSpaceOnUse">
<stop stop-color="#149FE6"/>
<stop offset="1" stop-color="#D22936"/>
</linearGradient>
<linearGradient id="paint18_linear_374_9" x1="16.4355" y1="7.23829" x2="16.4355" y2="7.3047" gradientUnits="userSpaceOnUse">
<stop stop-color="#149FE6"/>
<stop offset="1" stop-color="#D22936"/>
</linearGradient>
<linearGradient id="paint19_linear_374_9" x1="14.4434" y1="7.23829" x2="14.4434" y2="7.3047" gradientUnits="userSpaceOnUse">
<stop stop-color="#149FE6"/>
<stop offset="1" stop-color="#D22936"/>
</linearGradient>
<linearGradient id="paint20_linear_374_9" x1="16.5684" y1="19.5234" x2="16.5684" y2="20.5195" gradientUnits="userSpaceOnUse">
<stop stop-color="#149FE6"/>
<stop offset="1" stop-color="#D22936"/>
</linearGradient>
<linearGradient id="paint21_linear_374_9" x1="24.8027" y1="31.0781" x2="24.8027" y2="31.875" gradientUnits="userSpaceOnUse">
<stop stop-color="#149FE6"/>
<stop offset="1" stop-color="#D22936"/>
</linearGradient>
<linearGradient id="paint22_linear_374_9" x1="17.0332" y1="6.57422" x2="17.0332" y2="7.23828" gradientUnits="userSpaceOnUse">
<stop stop-color="#149FE6"/>
<stop offset="1" stop-color="#D22936"/>
</linearGradient>
<linearGradient id="paint23_linear_374_9" x1="18.9922" y1="9.23047" x2="18.9922" y2="9.29688" gradientUnits="userSpaceOnUse">
<stop stop-color="#149FE6"/>
<stop offset="1" stop-color="#D22936"/>
</linearGradient>
<linearGradient id="paint24_linear_374_9" x1="11.2559" y1="6.44141" x2="11.2559" y2="6.50781" gradientUnits="userSpaceOnUse">
<stop stop-color="#149FE6"/>
<stop offset="1" stop-color="#D22936"/>
</linearGradient>
<linearGradient id="paint25_linear_374_9" x1="27.6914" y1="18.3945" x2="27.6914" y2="18.4609" gradientUnits="userSpaceOnUse">
<stop stop-color="#149FE6"/>
<stop offset="1" stop-color="#D22936"/>
</linearGradient>
<linearGradient id="paint26_linear_374_9" x1="17.6641" y1="18.3945" x2="17.6641" y2="18.4609" gradientUnits="userSpaceOnUse">
<stop stop-color="#149FE6"/>
<stop offset="1" stop-color="#D22936"/>
</linearGradient>
<linearGradient id="paint27_linear_374_9" x1="18.9258" y1="8.5" x2="18.9258" y2="8.56641" gradientUnits="userSpaceOnUse">
<stop stop-color="#149FE6"/>
<stop offset="1" stop-color="#D22936"/>
</linearGradient>
<linearGradient id="paint28_linear_374_9" x1="28.7207" y1="18.9922" x2="28.7207" y2="19.3242" gradientUnits="userSpaceOnUse">
<stop stop-color="#149FE6"/>
<stop offset="1" stop-color="#D22936"/>
</linearGradient>
<linearGradient id="paint29_linear_374_9" x1="13.9785" y1="14.2109" x2="13.9785" y2="14.543" gradientUnits="userSpaceOnUse">
<stop stop-color="#149FE6"/>
<stop offset="1" stop-color="#D22936"/>
</linearGradient>
<linearGradient id="paint30_linear_374_9" x1="11.2559" y1="7.17188" x2="11.2559" y2="7.23829" gradientUnits="userSpaceOnUse">
<stop stop-color="#149FE6"/>
<stop offset="1" stop-color="#D22936"/>
</linearGradient>
<linearGradient id="paint31_linear_374_9" x1="7.17187" y1="33.9336" x2="7.17187" y2="34" gradientUnits="userSpaceOnUse">
<stop stop-color="#149FE6"/>
<stop offset="1" stop-color="#D22936"/>
</linearGradient>
<linearGradient id="paint32_linear_374_9" x1="22.6445" y1="30.6797" x2="22.6445" y2="30.7461" gradientUnits="userSpaceOnUse">
<stop stop-color="#149FE6"/>
<stop offset="1" stop-color="#D22936"/>
</linearGradient>
<linearGradient id="paint33_linear_374_9" x1="28.7207" y1="20.918" x2="28.7207" y2="21.1836" gradientUnits="userSpaceOnUse">
<stop stop-color="#149FE6"/>
<stop offset="1" stop-color="#D22936"/>
</linearGradient>
<linearGradient id="paint34_linear_374_9" x1="17.498" y1="14.2773" x2="17.498" y2="14.543" gradientUnits="userSpaceOnUse">
<stop stop-color="#149FE6"/>
<stop offset="1" stop-color="#D22936"/>
</linearGradient>
<linearGradient id="paint35_linear_374_9" x1="20.752" y1="7.70313" x2="20.752" y2="7.96875" gradientUnits="userSpaceOnUse">
<stop stop-color="#149FE6"/>
<stop offset="1" stop-color="#D22936"/>
</linearGradient>
<linearGradient id="paint36_linear_374_9" x1="7.17187" y1="0" x2="7.17187" y2="0.0664062" gradientUnits="userSpaceOnUse">
<stop stop-color="#149FE6"/>
<stop offset="1" stop-color="#D22936"/>
</linearGradient>
<linearGradient id="paint37_linear_374_9" x1="28.7207" y1="20.7187" x2="28.7207" y2="20.918" gradientUnits="userSpaceOnUse">
<stop stop-color="#149FE6"/>
<stop offset="1" stop-color="#D22936"/>
</linearGradient>
<linearGradient id="paint38_linear_374_9" x1="25.002" y1="20.5195" x2="25.002" y2="20.5859" gradientUnits="userSpaceOnUse">
<stop stop-color="#149FE6"/>
<stop offset="1" stop-color="#D22936"/>
</linearGradient>
<linearGradient id="paint39_linear_374_9" x1="22.8105" y1="16.2031" x2="22.8105" y2="16.2695" gradientUnits="userSpaceOnUse">
<stop stop-color="#149FE6"/>
<stop offset="1" stop-color="#D22936"/>
</linearGradient>
<linearGradient id="paint40_linear_374_9" x1="22.2129" y1="13.6797" x2="22.2129" y2="13.7461" gradientUnits="userSpaceOnUse">
<stop stop-color="#149FE6"/>
<stop offset="1" stop-color="#D22936"/>
</linearGradient>
<linearGradient id="paint41_linear_374_9" x1="11.7207" y1="13.6797" x2="11.7207" y2="13.7461" gradientUnits="userSpaceOnUse">
<stop stop-color="#149FE6"/>
<stop offset="1" stop-color="#D22936"/>
</linearGradient>
<linearGradient id="paint42_linear_374_9" x1="25.4004" y1="12.8164" x2="25.4004" y2="12.8828" gradientUnits="userSpaceOnUse">
<stop stop-color="#149FE6"/>
<stop offset="1" stop-color="#D22936"/>
</linearGradient>
<linearGradient id="paint43_linear_374_9" x1="11.5879" y1="10.7578" x2="11.5879" y2="10.8242" gradientUnits="userSpaceOnUse">
<stop stop-color="#149FE6"/>
<stop offset="1" stop-color="#D22936"/>
</linearGradient>
<linearGradient id="paint44_linear_374_9" x1="10.8574" y1="10.7578" x2="10.8574" y2="10.8242" gradientUnits="userSpaceOnUse">
<stop stop-color="#149FE6"/>
<stop offset="1" stop-color="#D22936"/>
</linearGradient>
<linearGradient id="paint45_linear_374_9" x1="13.1816" y1="9.03125" x2="13.1816" y2="9.23047" gradientUnits="userSpaceOnUse">
<stop stop-color="#149FE6"/>
<stop offset="1" stop-color="#D22936"/>
</linearGradient>
<linearGradient id="paint46_linear_374_9" x1="9.26367" y1="9.03125" x2="9.26367" y2="9.23047" gradientUnits="userSpaceOnUse">
<stop stop-color="#149FE6"/>
<stop offset="1" stop-color="#D22936"/>
</linearGradient>
<linearGradient id="paint47_linear_374_9" x1="17.9629" y1="6.50782" x2="17.9629" y2="6.57422" gradientUnits="userSpaceOnUse">
<stop stop-color="#149FE6"/>
<stop offset="1" stop-color="#D22936"/>
</linearGradient>
<linearGradient id="paint48_linear_374_9" x1="24.3711" y1="33.9336" x2="24.3711" y2="34" gradientUnits="userSpaceOnUse">
<stop stop-color="#149FE6"/>
<stop offset="1" stop-color="#D22936"/>
</linearGradient>
<linearGradient id="paint49_linear_374_9" x1="24.2383" y1="33.9336" x2="24.2383" y2="34" gradientUnits="userSpaceOnUse">
<stop stop-color="#149FE6"/>
<stop offset="1" stop-color="#D22936"/>
</linearGradient>
<linearGradient id="paint50_linear_374_9" x1="7.10547" y1="33.9336" x2="7.10547" y2="34" gradientUnits="userSpaceOnUse">
<stop stop-color="#149FE6"/>
<stop offset="1" stop-color="#D22936"/>
</linearGradient>
<linearGradient id="paint51_linear_374_9" x1="5.2793" y1="32.1406" x2="5.2793" y2="32.2735" gradientUnits="userSpaceOnUse">
<stop stop-color="#149FE6"/>
<stop offset="1" stop-color="#D22936"/>
</linearGradient>
<linearGradient id="paint52_linear_374_9" x1="26.1973" y1="32.0742" x2="26.1973" y2="32.207" gradientUnits="userSpaceOnUse">
<stop stop-color="#149FE6"/>
<stop offset="1" stop-color="#D22936"/>
</linearGradient>
<linearGradient id="paint53_linear_374_9" x1="26.1973" y1="31.0117" x2="26.1973" y2="31.1445" gradientUnits="userSpaceOnUse">
<stop stop-color="#149FE6"/>
<stop offset="1" stop-color="#D22936"/>
</linearGradient>
<linearGradient id="paint54_linear_374_9" x1="24.8027" y1="31.0781" x2="24.8027" y2="31.2109" gradientUnits="userSpaceOnUse">
<stop stop-color="#149FE6"/>
<stop offset="1" stop-color="#D22936"/>
</linearGradient>
<linearGradient id="paint55_linear_374_9" x1="20.0215" y1="23.3086" x2="20.0215" y2="23.4414" gradientUnits="userSpaceOnUse">
<stop stop-color="#149FE6"/>
<stop offset="1" stop-color="#D22936"/>
</linearGradient>
<linearGradient id="paint56_linear_374_9" x1="28.5215" y1="22.5117" x2="28.5215" y2="22.6445" gradientUnits="userSpaceOnUse">
<stop stop-color="#149FE6"/>
<stop offset="1" stop-color="#D22936"/>
</linearGradient>
<linearGradient id="paint57_linear_374_9" x1="16.7676" y1="22.3125" x2="16.7676" y2="22.4453" gradientUnits="userSpaceOnUse">
<stop stop-color="#149FE6"/>
<stop offset="1" stop-color="#D22936"/>
</linearGradient>
<linearGradient id="paint58_linear_374_9" x1="28.5879" y1="22.1133" x2="28.5879" y2="22.2461" gradientUnits="userSpaceOnUse">
<stop stop-color="#149FE6"/>
<stop offset="1" stop-color="#D22936"/>
</linearGradient>
<linearGradient id="paint59_linear_374_9" x1="16.7012" y1="21.9141" x2="16.7012" y2="22.0469" gradientUnits="userSpaceOnUse">
<stop stop-color="#149FE6"/>
<stop offset="1" stop-color="#D22936"/>
</linearGradient>
<linearGradient id="paint60_linear_374_9" x1="28.6543" y1="21.6484" x2="28.6543" y2="21.7813" gradientUnits="userSpaceOnUse">
<stop stop-color="#149FE6"/>
<stop offset="1" stop-color="#D22936"/>
</linearGradient>
<linearGradient id="paint61_linear_374_9" x1="16.6348" y1="21.3164" x2="16.6348" y2="21.4492" gradientUnits="userSpaceOnUse">
<stop stop-color="#149FE6"/>
<stop offset="1" stop-color="#D22936"/>
</linearGradient>
<linearGradient id="paint62_linear_374_9" x1="16.6348" y1="21.1836" x2="16.6348" y2="21.3164" gradientUnits="userSpaceOnUse">
<stop stop-color="#149FE6"/>
<stop offset="1" stop-color="#D22936"/>
</linearGradient>
<linearGradient id="paint63_linear_374_9" x1="28.7207" y1="18.9922" x2="28.7207" y2="19.125" gradientUnits="userSpaceOnUse">
<stop stop-color="#149FE6"/>
<stop offset="1" stop-color="#D22936"/>
</linearGradient>
<linearGradient id="paint64_linear_374_9" x1="17.0664" y1="18.4609" x2="17.0664" y2="18.5273" gradientUnits="userSpaceOnUse">
<stop stop-color="#149FE6"/>
<stop offset="1" stop-color="#D22936"/>
</linearGradient>
<linearGradient id="paint65_linear_374_9" x1="27.4258" y1="18.3945" x2="27.4258" y2="18.4609" gradientUnits="userSpaceOnUse">
<stop stop-color="#149FE6"/>
<stop offset="1" stop-color="#D22936"/>
</linearGradient>
<linearGradient id="paint66_linear_374_9" x1="17.9297" y1="18.3945" x2="17.9297" y2="18.4609" gradientUnits="userSpaceOnUse">
<stop stop-color="#149FE6"/>
<stop offset="1" stop-color="#D22936"/>
</linearGradient>
<linearGradient id="paint67_linear_374_9" x1="18.3945" y1="18.3281" x2="18.3945" y2="18.3945" gradientUnits="userSpaceOnUse">
<stop stop-color="#149FE6"/>
<stop offset="1" stop-color="#D22936"/>
</linearGradient>
<linearGradient id="paint68_linear_374_9" x1="18.793" y1="18.2617" x2="18.793" y2="18.3281" gradientUnits="userSpaceOnUse">
<stop stop-color="#149FE6"/>
<stop offset="1" stop-color="#D22936"/>
</linearGradient>
<linearGradient id="paint69_linear_374_9" x1="22.5117" y1="16.2031" x2="22.5117" y2="16.2695" gradientUnits="userSpaceOnUse">
<stop stop-color="#149FE6"/>
<stop offset="1" stop-color="#D22936"/>
</linearGradient>
<linearGradient id="paint70_linear_374_9" x1="25.3008" y1="16.0039" x2="25.3008" y2="16.0703" gradientUnits="userSpaceOnUse">
<stop stop-color="#149FE6"/>
<stop offset="1" stop-color="#D22936"/>
</linearGradient>
<linearGradient id="paint71_linear_374_9" x1="24.7363" y1="15.3398" x2="24.7363" y2="15.4726" gradientUnits="userSpaceOnUse">
<stop stop-color="#149FE6"/>
<stop offset="1" stop-color="#D22936"/>
</linearGradient>
<linearGradient id="paint72_linear_374_9" x1="26.2637" y1="15.0742" x2="26.2637" y2="15.207" gradientUnits="userSpaceOnUse">
<stop stop-color="#149FE6"/>
<stop offset="1" stop-color="#D22936"/>
</linearGradient>
<linearGradient id="paint73_linear_374_9" x1="24.7363" y1="15.1406" x2="24.7363" y2="15.2734" gradientUnits="userSpaceOnUse">
<stop stop-color="#149FE6"/>
<stop offset="1" stop-color="#D22936"/>
</linearGradient>
<linearGradient id="paint74_linear_374_9" x1="19.8555" y1="15.0742" x2="19.8555" y2="15.1406" gradientUnits="userSpaceOnUse">
<stop stop-color="#149FE6"/>
<stop offset="1" stop-color="#D22936"/>
</linearGradient>
<linearGradient id="paint75_linear_374_9" x1="14.543" y1="15.0742" x2="14.543" y2="15.1406" gradientUnits="userSpaceOnUse">
<stop stop-color="#149FE6"/>
<stop offset="1" stop-color="#D22936"/>
</linearGradient>
<linearGradient id="paint76_linear_374_9" x1="11.6875" y1="15.0742" x2="11.6875" y2="15.1406" gradientUnits="userSpaceOnUse">
<stop stop-color="#149FE6"/>
<stop offset="1" stop-color="#D22936"/>
</linearGradient>
<linearGradient id="paint77_linear_374_9" x1="9.36328" y1="15.0742" x2="9.36328" y2="15.1406" gradientUnits="userSpaceOnUse">
<stop stop-color="#149FE6"/>
<stop offset="1" stop-color="#D22936"/>
</linearGradient>
<linearGradient id="paint78_linear_374_9" x1="25.5" y1="14.4766" x2="25.5" y2="14.543" gradientUnits="userSpaceOnUse">
<stop stop-color="#149FE6"/>
<stop offset="1" stop-color="#D22936"/>
</linearGradient>
<linearGradient id="paint79_linear_374_9" x1="19.291" y1="14.2109" x2="19.291" y2="14.3438" gradientUnits="userSpaceOnUse">
<stop stop-color="#149FE6"/>
<stop offset="1" stop-color="#D22936"/>
</linearGradient>
<linearGradient id="paint80_linear_374_9" x1="13.9785" y1="14.2109" x2="13.9785" y2="14.3438" gradientUnits="userSpaceOnUse">
<stop stop-color="#149FE6"/>
<stop offset="1" stop-color="#D22936"/>
</linearGradient>
<linearGradient id="paint81_linear_374_9" x1="8.79883" y1="14.1445" x2="8.79883" y2="14.2774" gradientUnits="userSpaceOnUse">
<stop stop-color="#149FE6"/>
<stop offset="1" stop-color="#D22936"/>
</linearGradient>
<linearGradient id="paint82_linear_374_9" x1="22.7441" y1="14.0781" x2="22.7441" y2="14.2109" gradientUnits="userSpaceOnUse">
<stop stop-color="#149FE6"/>
<stop offset="1" stop-color="#D22936"/>
</linearGradient>
<linearGradient id="paint83_linear_374_9" x1="19.8555" y1="13.6797" x2="19.8555" y2="13.7461" gradientUnits="userSpaceOnUse">
<stop stop-color="#149FE6"/>
<stop offset="1" stop-color="#D22936"/>
</linearGradient>
<linearGradient id="paint84_linear_374_9" x1="14.543" y1="13.6797" x2="14.543" y2="13.7461" gradientUnits="userSpaceOnUse">
<stop stop-color="#149FE6"/>
<stop offset="1" stop-color="#D22936"/>
</linearGradient>
<linearGradient id="paint85_linear_374_9" x1="9.36328" y1="13.6797" x2="9.36328" y2="13.7461" gradientUnits="userSpaceOnUse">
<stop stop-color="#149FE6"/>
<stop offset="1" stop-color="#D22936"/>
</linearGradient>
<linearGradient id="paint86_linear_374_9" x1="24.8027" y1="12.2188" x2="24.8027" y2="12.3516" gradientUnits="userSpaceOnUse">
<stop stop-color="#149FE6"/>
<stop offset="1" stop-color="#D22936"/>
</linearGradient>
<linearGradient id="paint87_linear_374_9" x1="11.4219" y1="10.7578" x2="11.4219" y2="10.8242" gradientUnits="userSpaceOnUse">
<stop stop-color="#149FE6"/>
<stop offset="1" stop-color="#D22936"/>
</linearGradient>
<linearGradient id="paint88_linear_374_9" x1="10.5586" y1="10.6914" x2="10.5586" y2="10.7578" gradientUnits="userSpaceOnUse">
<stop stop-color="#149FE6"/>
<stop offset="1" stop-color="#D22936"/>
</linearGradient>
<linearGradient id="paint89_linear_374_9" x1="11.4883" y1="10.0273" x2="11.4883" y2="10.0938" gradientUnits="userSpaceOnUse">
<stop stop-color="#149FE6"/>
<stop offset="1" stop-color="#D22936"/>
</linearGradient>
<linearGradient id="paint90_linear_374_9" x1="11.0234" y1="10.0273" x2="11.0234" y2="10.0938" gradientUnits="userSpaceOnUse">
<stop stop-color="#149FE6"/>
<stop offset="1" stop-color="#D22936"/>
</linearGradient>
<linearGradient id="paint91_linear_374_9" x1="12.252" y1="9.16406" x2="12.252" y2="9.29688" gradientUnits="userSpaceOnUse">
<stop stop-color="#149FE6"/>
<stop offset="1" stop-color="#D22936"/>
</linearGradient>
<linearGradient id="paint92_linear_374_9" x1="10.1934" y1="9.09766" x2="10.1934" y2="9.23047" gradientUnits="userSpaceOnUse">
<stop stop-color="#149FE6"/>
<stop offset="1" stop-color="#D22936"/>
</linearGradient>
<linearGradient id="paint93_linear_374_9" x1="12.3184" y1="8.56641" x2="12.3184" y2="8.69922" gradientUnits="userSpaceOnUse">
<stop stop-color="#149FE6"/>
<stop offset="1" stop-color="#D22936"/>
</linearGradient>
<linearGradient id="paint94_linear_374_9" x1="10.127" y1="8.56641" x2="10.127" y2="8.69922" gradientUnits="userSpaceOnUse">
<stop stop-color="#149FE6"/>
<stop offset="1" stop-color="#D22936"/>
</linearGradient>
<linearGradient id="paint95_linear_374_9" x1="13.1816" y1="8.03516" x2="13.1816" y2="8.16797" gradientUnits="userSpaceOnUse">
<stop stop-color="#149FE6"/>
<stop offset="1" stop-color="#D22936"/>
</linearGradient>
<linearGradient id="paint96_linear_374_9" x1="12.252" y1="8.03516" x2="12.252" y2="8.16797" gradientUnits="userSpaceOnUse">
<stop stop-color="#149FE6"/>
<stop offset="1" stop-color="#D22936"/>
</linearGradient>
<linearGradient id="paint97_linear_374_9" x1="10.1934" y1="8.03516" x2="10.1934" y2="8.16797" gradientUnits="userSpaceOnUse">
<stop stop-color="#149FE6"/>
<stop offset="1" stop-color="#D22936"/>
</linearGradient>
<linearGradient id="paint98_linear_374_9" x1="9.26367" y1="8.03516" x2="9.26367" y2="8.16797" gradientUnits="userSpaceOnUse">
<stop stop-color="#149FE6"/>
<stop offset="1" stop-color="#D22936"/>
</linearGradient>
<linearGradient id="paint99_linear_374_9" x1="20.6855" y1="7.3711" x2="20.6855" y2="7.50391" gradientUnits="userSpaceOnUse">
<stop stop-color="#149FE6"/>
<stop offset="1" stop-color="#D22936"/>
</linearGradient>
<linearGradient id="paint100_linear_374_9" x1="19.2578" y1="7.23829" x2="19.2578" y2="7.3047" gradientUnits="userSpaceOnUse">
<stop stop-color="#149FE6"/>
<stop offset="1" stop-color="#D22936"/>
</linearGradient>
<linearGradient id="paint101_linear_374_9" x1="19.457" y1="6.50782" x2="19.457" y2="6.57422" gradientUnits="userSpaceOnUse">
<stop stop-color="#149FE6"/>
<stop offset="1" stop-color="#D22936"/>
</linearGradient>
<linearGradient id="paint102_linear_374_9" x1="10.625" y1="6.50782" x2="10.625" y2="6.57422" gradientUnits="userSpaceOnUse">
<stop stop-color="#149FE6"/>
<stop offset="1" stop-color="#D22936"/>
</linearGradient>
<linearGradient id="paint103_linear_374_9" x1="12.9492" y1="3.58594" x2="12.9492" y2="3.65235" gradientUnits="userSpaceOnUse">
<stop stop-color="#149FE6"/>
<stop offset="1" stop-color="#D22936"/>
</linearGradient>
<linearGradient id="paint104_linear_374_9" x1="11.8535" y1="2.45704" x2="11.8535" y2="2.58985" gradientUnits="userSpaceOnUse">
<stop stop-color="#149FE6"/>
<stop offset="1" stop-color="#D22936"/>
</linearGradient>
<linearGradient id="paint105_linear_374_9" x1="26.1973" y1="1.79297" x2="26.1973" y2="1.92579" gradientUnits="userSpaceOnUse">
<stop stop-color="#149FE6"/>
<stop offset="1" stop-color="#D22936"/>
</linearGradient>
<linearGradient id="paint106_linear_374_9" x1="5.2793" y1="1.72656" x2="5.2793" y2="1.85938" gradientUnits="userSpaceOnUse">
<stop stop-color="#149FE6"/>
<stop offset="1" stop-color="#D22936"/>
</linearGradient>
<linearGradient id="paint107_linear_374_9" x1="11.6543" y1="1.59375" x2="11.6543" y2="1.72657" gradientUnits="userSpaceOnUse">
<stop stop-color="#149FE6"/>
<stop offset="1" stop-color="#D22936"/>
</linearGradient>
<linearGradient id="paint108_linear_374_9" x1="5.3457" y1="1.46094" x2="5.3457" y2="1.59375" gradientUnits="userSpaceOnUse">
<stop stop-color="#149FE6"/>
<stop offset="1" stop-color="#D22936"/>
</linearGradient>
<linearGradient id="paint109_linear_374_9" x1="24.3711" y1="0" x2="24.3711" y2="0.0664062" gradientUnits="userSpaceOnUse">
<stop stop-color="#149FE6"/>
<stop offset="1" stop-color="#D22936"/>
</linearGradient>
<linearGradient id="paint110_linear_374_9" x1="24.2383" y1="0" x2="24.2383" y2="0.0664062" gradientUnits="userSpaceOnUse">
<stop stop-color="#149FE6"/>
<stop offset="1" stop-color="#D22936"/>
</linearGradient>
<linearGradient id="paint111_linear_374_9" x1="7.10547" y1="0" x2="7.10547" y2="0.0664062" gradientUnits="userSpaceOnUse">
<stop stop-color="#149FE6"/>
<stop offset="1" stop-color="#D22936"/>
</linearGradient>
<clipPath id="clip0_374_9">
<rect width="34" height="34" fill="white"/>
</clipPath>
</defs>
</svg>
