<svg width="258" height="59" viewBox="0 0 258 59" fill="none" xmlns="http://www.w3.org/2000/svg">
<path fill-rule="evenodd" clip-rule="evenodd" d="M151.521 39.6971C153.022 40.2641 154.235 40.5476 155.148 40.5476C156.977 40.5476 158.285 39.7227 159.071 38.0752L159.561 36.8879H155.443L152.502 11.2719L161.571 10.5864L162.698 24.3866V28.8875C162.798 27.972 162.926 27.3051 163.089 26.8775C163.188 26.4198 163.484 25.5693 163.974 24.3285L168.947 11.2603L178.014 10.5911L166.181 38.849L165.494 40.3687C165.396 40.5987 165.24 40.924 165.027 41.3516C164.813 41.7745 164.543 42.2485 164.218 42.7714C163.663 43.7821 162.731 44.7 161.425 45.5179C160.084 46.2336 158.367 46.5891 156.275 46.5891C154.184 46.5891 151.798 46.2313 149.018 45.5179L151.521 39.6948V39.6971ZM216.156 18.4845C215.6 18.1569 214.98 17.9942 214.294 17.9942C212.658 17.9942 211.564 18.5426 211.008 19.6394C210.451 20.7361 210.035 21.898 209.758 23.1248C209.479 24.3517 209.34 25.4415 209.34 26.3896C209.34 29.0734 210.367 30.4165 212.428 30.4165C213.081 30.4165 213.783 30.2376 214.538 29.8774L216.156 18.4845ZM218.463 1.61941L227.089 0.882812L222.086 36.8879H213.702L213.897 35.3194C211.708 36.7624 209.735 37.4827 207.971 37.4827C205.587 37.4827 203.7 36.5951 202.313 34.8175C200.926 33.0399 200.233 30.5373 200.233 27.3121C200.233 22.5858 201.367 18.6146 203.638 15.4033C205.908 12.1944 208.713 10.5864 212.042 10.5864C213.709 10.5864 215.358 11.1023 216.992 12.1293L218.461 1.61941H218.463ZM189.212 30.9068L187.787 31.2948L186.663 31.4412C185.812 31.4412 185.127 31.2297 184.604 30.8092C184.114 30.3235 183.867 29.724 183.867 29.0107C183.867 27.879 184.3 26.9612 185.166 26.2641C186.031 25.567 187.167 25.2185 188.575 25.2185L189.997 25.3161L189.212 30.9068ZM197.082 11.5066C195.463 10.5097 193.353 9.95205 190.095 10.0101C186.837 10.0706 185.522 10.2913 183.932 10.5771C183.047 10.7351 182.099 10.921 180.867 11.2208L177.914 18.2103C182.011 16.8184 184.613 16.1957 186.665 16.2515C188.715 16.3119 189.277 16.514 189.9 16.9184C190.52 17.3227 190.834 17.8316 190.834 18.4473L190.588 21.4472C188.691 20.9058 186.944 20.6316 185.341 20.6316C182.299 20.6316 179.789 21.5936 177.812 23.5152C175.834 25.4369 174.847 27.7977 174.847 30.5954C174.847 32.7146 175.458 34.3923 176.685 35.6284C177.912 36.8669 179.603 37.4827 181.76 37.4827C184.144 37.4827 186.433 36.5765 188.624 34.7594L188.819 36.8879H196.762L199.506 15.7914C199.506 13.9301 198.697 12.5011 197.08 11.5066H197.082ZM131.026 1.61941L139.589 0.885138L138.018 12.4221C140.311 11.1836 142.491 10.5632 144.557 10.5632C146.623 10.5632 148.191 11.0465 149.372 12.0108C150.552 12.9751 151.142 14.3228 151.142 16.0563V17.576L150.947 18.7029L148.384 36.8925L139.861 36.8855L142.068 21.001L142.187 19.5348C142.187 18.9469 141.982 18.452 141.573 18.043C141.167 17.6341 140.604 17.4319 139.888 17.4319C139.073 17.4319 138.178 17.7247 137.2 18.3126L134.616 36.8971H126.137L131.026 1.62639V1.61941ZM114.918 30.9068L113.496 31.2948L112.369 31.4412C111.52 31.4412 110.835 31.2297 110.31 30.8092C109.819 30.3235 109.575 29.724 109.575 29.0107C109.575 27.879 110.008 26.9612 110.874 26.2641C111.741 25.567 112.875 25.2185 114.283 25.2185L115.703 25.3161L114.918 30.9068ZM122.788 11.5066C121.171 10.5097 119.061 9.95205 115.801 10.0101C112.545 10.0706 111.23 10.2913 109.641 10.5771C108.753 10.7351 107.805 10.921 106.576 11.2208L103.62 18.2103C107.719 16.8184 110.321 16.1957 112.369 16.2515C114.42 16.3119 114.985 16.514 115.603 16.9184C116.224 17.3227 116.537 17.8316 116.537 18.4473L116.291 21.4472C114.395 20.9058 112.645 20.6316 111.044 20.6316C108.005 20.6316 105.495 21.5936 103.517 23.5152C101.54 25.4369 100.552 27.7977 100.552 30.5954C100.552 32.7146 101.164 34.3923 102.39 35.6284C103.617 36.8669 105.309 37.4827 107.465 37.4827C109.85 37.4827 112.139 36.5765 114.33 34.7594L114.525 36.8879H122.47L125.216 15.7914C125.216 13.9301 124.405 12.5011 122.788 11.5066ZM250.979 11.4949C249.185 10.8559 247.828 10.6817 247.368 10.6375L243.659 36.8902H252.129L255.401 13.7024C254.855 13.3353 253.2 12.285 250.977 11.4949H250.979ZM256.119 8.65079L257.22 0.882812L248.641 1.61941L247.547 9.41063L256.119 8.64846V8.65079ZM229.401 10.9744L237.982 10.433L237.687 12.5615C239.616 11.1441 241.512 10.433 243.376 10.433H244.454L243.352 17.9245C243.352 17.9245 242.339 17.6457 240.434 17.7107C238.528 17.7804 236.902 18.3614 236.902 18.3614L234.304 36.7345H225.82L229.398 10.9744H229.401ZM77.6056 28.4623C80.3337 29.7124 82.7805 30.3351 84.9486 30.3351C86.3939 30.3351 87.593 30.0098 88.5457 29.3569C89.4984 28.7063 89.9748 27.8744 89.9748 26.8659C89.9748 26.1479 89.7471 25.6112 89.2893 25.2533C88.8989 24.8629 88.3947 24.5214 87.7742 24.2286L83.961 22.2721C82.0067 21.2961 80.4591 20.125 79.3182 18.7541C78.1749 17.3877 77.6056 15.7077 77.6056 13.721C77.6056 10.0078 78.9696 6.95453 81.7 4.56116C84.4281 2.1678 87.916 0.968787 92.1638 0.968787C95.0405 0.968787 98.2101 1.54041 101.677 2.68365L98.7352 9.58025C97.3945 9.0644 96.1908 8.67867 95.1312 8.41843C94.0692 8.1605 93.0468 8.03038 92.0662 8.03038C90.6952 8.03038 89.5589 8.31619 88.6596 8.88781C87.7603 9.4571 87.3118 10.1983 87.3118 11.1092C87.3118 11.8272 87.4907 12.3129 87.8486 12.5754L88.8269 13.2098L89.5612 13.649L91.9569 14.8689C95.1521 16.3677 97.3108 17.7735 98.4378 19.0956C99.5625 20.4131 100.127 22.0653 100.127 24.052C100.127 27.8605 98.6377 31.0532 95.6633 33.6231C92.6889 36.1977 88.9477 37.4804 84.435 37.4804C83.3568 37.4804 82.5644 37.4641 82.0579 37.4316C81.5513 37.3967 80.8565 37.2829 79.9735 37.0877C78.6327 36.86 76.8504 36.3697 74.6289 35.6191L77.6079 28.4576L77.6056 28.4623Z" fill="#C1202C"/>
<path fill-rule="evenodd" clip-rule="evenodd" d="M31.1889 1.06268C31.089 0.739689 23.4671 5.46135 23.8436 6.69289C25.6514 12.5973 28.6374 19.8122 26.7204 25.9513C27.6661 25.6725 28.5677 25.2821 29.4182 24.7616C37.8812 19.1965 33.566 8.82601 31.1912 1.06268H31.1889ZM27.9287 58.5871C28.0286 58.9101 35.6528 54.1884 35.2763 52.9546C33.4708 47.0501 30.4825 39.8352 32.3995 33.6961C31.4561 33.9773 30.5522 34.3653 29.704 34.8858C21.2387 40.451 25.5562 50.8214 27.931 58.5848L27.9287 58.5871Z" fill="#0788C1"/>
<path fill-rule="evenodd" clip-rule="evenodd" d="M29.1098 29.195C27.4158 30.8286 25.8473 32.2483 22.2432 33.6216C15.9528 36.1916 8.75858 33.9678 0.797489 31.6047C0.46752 31.5071 5.26137 23.9947 6.51153 24.3665C13.3874 26.409 22.9728 29.9827 29.4095 26.0325C29.4095 26.0325 31.6984 24.5268 33.6108 21.8662C32.1097 26.0023 30.6295 27.7149 29.1098 29.1974V29.195ZM30.0091 30.4521C31.703 28.8209 33.2692 27.3988 36.8757 26.0256C43.166 23.4533 50.3602 25.6793 58.3213 28.0425C58.6513 28.1401 53.8575 35.6525 52.6073 35.2807C45.7314 33.2382 36.146 29.6644 29.7093 33.6146C29.7093 33.6146 27.4204 35.1203 25.5103 37.7832C27.0114 33.6471 28.4917 31.9346 30.0091 30.4498V30.4521Z" fill="#C1202C"/>
<path fill-rule="evenodd" clip-rule="evenodd" d="M75.6787 49.4268H77.4238V53.0749H80.8722V49.4268H82.6243V58.4425H80.8722V54.4528H77.4238V58.4425H75.6787V49.4268Z" fill="#050605"/>
<path fill-rule="evenodd" clip-rule="evenodd" d="M102.967 49.2275C104.268 49.2275 105.293 49.6458 106.043 50.4846C106.794 51.3212 107.168 52.469 107.168 53.9306C107.168 55.3922 106.794 56.5424 106.048 57.3766C105.302 58.2108 104.275 58.6267 102.964 58.6267C101.654 58.6267 100.634 58.2108 99.8902 57.3766C99.1443 56.5447 98.7725 55.3945 98.7725 53.9306C98.7725 52.4667 99.1466 51.3119 99.8925 50.4777C100.638 49.6435 101.663 49.2275 102.964 49.2275H102.967ZM102.967 50.5683C102.244 50.5683 101.661 50.8727 101.217 51.4792C100.773 52.0856 100.552 52.8966 100.552 53.9074C100.552 54.9182 100.773 55.7361 101.212 56.3472C101.654 56.9583 102.237 57.2651 102.964 57.2651C103.692 57.2651 104.277 56.9583 104.724 56.3449C105.167 55.7315 105.39 54.9205 105.39 53.9097C105.39 52.8989 105.167 52.0949 104.724 51.4861C104.277 50.8773 103.692 50.5729 102.964 50.5729L102.967 50.5683Z" fill="#050605"/>
<path fill-rule="evenodd" clip-rule="evenodd" d="M128.482 49.6601L128.333 51.0752C128.001 50.9219 127.671 50.808 127.346 50.7337C127.02 50.657 126.697 50.6198 126.377 50.6198C125.907 50.6198 125.542 50.7081 125.28 50.8824C125.017 51.059 124.887 51.3053 124.887 51.6213C124.887 52.014 125.361 52.4555 126.309 52.9411C126.4 52.9876 126.472 53.0224 126.521 53.048C127.406 53.5058 128.01 53.938 128.331 54.3469C128.654 54.7559 128.814 55.2439 128.814 55.8155C128.814 56.6497 128.503 57.3305 127.878 57.858C127.255 58.3878 126.435 58.6503 125.422 58.6503C125.006 58.6503 124.304 58.497 123.321 58.1926C123.216 58.16 123.137 58.1322 123.084 58.1089L123.247 56.5683C123.746 56.817 124.162 56.9959 124.499 57.1005C124.836 57.205 125.143 57.2585 125.422 57.2585C125.891 57.2585 126.272 57.1469 126.565 56.9262C126.858 56.7031 127.004 56.4243 127.004 56.085C127.004 55.6459 126.53 55.1625 125.582 54.6397C125.515 54.6002 125.466 54.5746 125.433 54.5561C125.396 54.5351 125.336 54.5026 125.252 54.4608C124.55 54.0797 124.055 53.7335 123.769 53.4198C123.565 53.2014 123.412 52.9504 123.305 52.6716C123.2 52.3927 123.147 52.0953 123.147 51.7816C123.147 51.0148 123.442 50.399 124.03 49.9297C124.618 49.4603 125.405 49.2256 126.391 49.2256C126.774 49.2256 127.329 49.3302 128.061 49.537C128.252 49.5927 128.394 49.6322 128.484 49.6578L128.482 49.6601Z" fill="#050605"/>
<path fill-rule="evenodd" clip-rule="evenodd" d="M145.023 49.4268H147.654C148.802 49.4268 149.65 49.6568 150.205 50.1146C150.758 50.5746 151.035 51.2787 151.035 52.2314C151.035 53.1121 150.747 53.7952 150.168 54.2809C149.59 54.7665 148.774 55.0105 147.717 55.0105H146.769V58.4425H145.023V49.4268ZM146.771 50.6955V53.7418H147.489C148.058 53.7418 148.495 53.6117 148.797 53.3514C149.102 53.0912 149.253 52.7194 149.253 52.2314C149.253 51.7434 149.109 51.3624 148.818 51.0951C148.53 50.8279 148.119 50.6955 147.587 50.6955H146.771Z" fill="#050605"/>
<path d="M168.615 49.4258H166.87V58.4416H168.615V49.4258Z" fill="#050605"/>
<path fill-rule="evenodd" clip-rule="evenodd" d="M184.318 49.4268H190.764V50.8163H188.403V58.4425H186.649V50.8163H184.318V49.4268Z" fill="#050605"/>
<path fill-rule="evenodd" clip-rule="evenodd" d="M208.833 49.4268H210.941L214.364 58.4425H212.481L211.745 56.3117H207.885L207.118 58.4425H205.385L208.833 49.4268ZM209.856 50.9302L208.371 54.9849H211.282L209.853 50.9302H209.856Z" fill="#050605"/>
<path fill-rule="evenodd" clip-rule="evenodd" d="M229.688 49.4258H231.436V57.066H234.989V58.4416H229.688V49.4258Z" fill="#050605"/>
<path fill-rule="evenodd" clip-rule="evenodd" d="M255.852 49.6601L255.7 51.0752C255.368 50.9219 255.038 50.808 254.713 50.7337C254.388 50.657 254.065 50.6198 253.744 50.6198C253.275 50.6198 252.907 50.7081 252.647 50.8824C252.385 51.059 252.254 51.3053 252.254 51.6213C252.254 52.014 252.728 52.4555 253.677 52.9411C253.767 52.9876 253.839 53.0224 253.888 53.048C254.773 53.5058 255.377 53.938 255.698 54.3469C256.021 54.7559 256.181 55.2439 256.181 55.8155C256.181 56.6497 255.87 57.3305 255.245 57.858C254.622 58.3878 253.802 58.6503 252.789 58.6503C252.373 58.6503 251.673 58.497 250.688 58.1926C250.584 58.16 250.505 58.1322 250.451 58.1089L250.614 56.5683C251.113 56.817 251.532 56.9959 251.866 57.1005C252.203 57.205 252.51 57.2585 252.789 57.2585C253.258 57.2585 253.639 57.1469 253.932 56.9262C254.225 56.7031 254.371 56.4243 254.371 56.085C254.371 55.6459 253.897 55.1625 252.949 54.6397C252.882 54.6002 252.833 54.5746 252.8 54.5561C252.763 54.5351 252.703 54.5026 252.619 54.4608C251.917 54.0797 251.422 53.7335 251.134 53.4198C250.93 53.2014 250.774 52.9504 250.67 52.6716C250.565 52.3927 250.512 52.0953 250.512 51.7816C250.512 51.0148 250.807 50.399 251.395 49.9297C251.983 49.4603 252.768 49.2256 253.756 49.2256C254.139 49.2256 254.694 49.3302 255.426 49.537C255.617 49.5927 255.759 49.6322 255.849 49.6578L255.852 49.6601Z" fill="#050605"/>
<path fill-rule="evenodd" clip-rule="evenodd" d="M65.3944 2.59065C64.7415 1.9377 63.8352 1.53105 62.836 1.53105C61.8368 1.53105 60.9329 1.93538 60.2776 2.58833C59.627 3.24592 59.2203 4.14981 59.2203 5.14898C59.2203 6.14816 59.627 7.05438 60.2799 7.70733C60.9352 8.36028 61.8391 8.76459 62.8383 8.76459C63.8375 8.76459 64.7415 8.36028 65.3968 7.705C66.0521 7.04973 66.4564 6.14583 66.4564 5.14898C66.4564 4.15214 66.0521 3.24592 65.3968 2.59065H65.3944ZM62.8337 0.650391C64.0746 0.650391 65.1993 1.15462 66.0126 1.9679C66.8259 2.78118 67.3301 3.90815 67.3301 5.14898C67.3301 6.38982 66.8259 7.51446 66.0126 8.32774C65.1993 9.14102 64.0746 9.64527 62.8314 9.64527C61.5882 9.64527 60.4658 9.14102 59.6525 8.32774C58.8392 7.51214 58.335 6.38749 58.335 5.14898C58.335 3.91048 58.8392 2.7835 59.6525 1.97023C60.4658 1.15462 61.5905 0.650391 62.8314 0.650391H62.8337ZM62.0622 4.81903H62.7036C63.1195 4.81903 63.3775 4.80044 63.482 4.76559C63.5843 4.73073 63.6656 4.67031 63.726 4.58434C63.7841 4.49836 63.8143 4.38915 63.8143 4.26135C63.8143 4.11728 63.7748 4.00111 63.6981 3.91049C63.6214 3.82219 63.5122 3.76641 63.3728 3.74318C63.3008 3.73388 63.0916 3.72691 62.7408 3.72691H62.0645V4.8167L62.0622 4.81903ZM61.1931 7.29373V3.00425H63.0173C63.4751 3.00425 63.8097 3.04376 64.0165 3.12044C64.2256 3.19712 64.3906 3.33422 64.5161 3.53173C64.6416 3.72924 64.7043 3.95463 64.7043 4.20791C64.7043 4.53089 64.6113 4.79579 64.4208 5.00492C64.2303 5.21405 63.9514 5.3465 63.575 5.40227C63.7609 5.51148 63.9142 5.62998 64.0351 5.76243C64.1582 5.89256 64.3209 6.12492 64.5254 6.45953L65.0505 7.29605H64.0141L63.3937 6.35961C63.1706 6.02733 63.0173 5.81587 62.9336 5.7299C62.8523 5.64392 62.764 5.58352 62.6734 5.55331C62.5804 5.52078 62.434 5.50451 62.2342 5.50451H62.0599V7.29605H61.1908L61.1931 7.29373Z" fill="#8F8F8D"/>
</svg>
